<svg width="13" height="21" viewBox="0 0 13 21" fill="none" xmlns="http://www.w3.org/2000/svg">
<path d="M11.7805 1.00368C12.0685 1.29172 12.2302 1.68233 12.2302 2.08963C12.2302 2.49692 12.0685 2.88754 11.7805 3.17558L4.1773 10.7788L11.7805 18.382C12.0603 18.6717 12.2151 19.0597 12.2116 19.4624C12.2081 19.8651 12.0466 20.2504 11.7618 20.5352C11.477 20.82 11.0918 20.9815 10.689 20.985C10.2863 20.9885 9.89829 20.8337 9.6086 20.5539L0.919446 11.8647C0.631491 11.5767 0.469727 11.1861 0.469727 10.7788C0.469727 10.3715 0.631491 9.98087 0.919446 9.69283L9.6086 1.00368C9.89664 0.71572 10.2873 0.553955 10.6946 0.553955C11.1018 0.553955 11.4925 0.71572 11.7805 1.00368Z" fill="#415DA1"/>
</svg>
