<svg width="15" height="14" viewBox="0 0 15 14" fill="none" xmlns="http://www.w3.org/2000/svg">
<path d="M6.325 10.15L11.6125 4.8625L10.5625 3.8125L6.325 8.05L4.1875 5.9125L3.1375 6.9625L6.325 10.15ZM2.125 13.75C1.7125 13.75 1.3595 13.6033 1.066 13.3097C0.7725 13.0162 0.6255 12.663 0.625 12.25V1.75C0.625 1.3375 0.772 0.9845 1.066 0.691C1.36 0.3975 1.713 0.2505 2.125 0.25H12.625C13.0375 0.25 13.3907 0.397 13.6847 0.691C13.9788 0.985 14.1255 1.338 14.125 1.75V12.25C14.125 12.6625 13.9783 13.0157 13.6847 13.3097C13.3912 13.6038 13.038 13.7505 12.625 13.75H2.125ZM2.125 12.25H12.625V1.75H2.125V12.25Z" fill="#ADADAD"/>
</svg>
