<svg width="15" height="15" viewBox="0 0 15 15" fill="none" xmlns="http://www.w3.org/2000/svg">
<path d="M3.5957 4.50012H2.8457C2.44788 4.50012 2.06635 4.65816 1.78504 4.93946C1.50374 5.22077 1.3457 5.6023 1.3457 6.00012V12.7501C1.3457 13.1479 1.50374 13.5295 1.78504 13.8108C2.06635 14.0921 2.44788 14.2501 2.8457 14.2501H9.5957C9.99353 14.2501 10.3751 14.0921 10.6564 13.8108C10.9377 13.5295 11.0957 13.1479 11.0957 12.7501V12.0001" stroke="#ADADAD" stroke-width="1.5" stroke-linecap="round" stroke-linejoin="round"/>
<path d="M10.3457 3.00008L12.5957 5.25008M13.6345 4.18883C13.9298 3.89345 14.0958 3.49282 14.0958 3.07508C14.0958 2.65734 13.9298 2.25672 13.6345 1.96133C13.3391 1.66595 12.9384 1.5 12.5207 1.5C12.103 1.5 11.7023 1.66595 11.407 1.96133L5.0957 8.25008V10.5001H7.3457L13.6345 4.18883Z" stroke="#ADADAD" stroke-width="1.5" stroke-linecap="round" stroke-linejoin="round"/>
</svg>
