<svg width="78" height="67" viewBox="0 0 78 67" fill="none" xmlns="http://www.w3.org/2000/svg">
<path d="M35.7248 0.457882L34.3374 18.7306C34.3374 19.3164 35.211 19.2856 35.2521 18.7306L36.6395 0.406496C36.6806 -0.158745 35.7659 -0.127914 35.7248 0.457882Z" fill="#FFD4AB"/>
<path d="M32.3337 17.6206C30.9634 14.2566 29.5589 10.8925 28.1201 7.52847C27.894 6.99406 27.0204 7.25099 27.2465 7.79567C28.6168 11.1597 30.0213 14.5238 31.4601 17.8878C31.6862 18.4222 32.5598 18.1653 32.3337 17.6206Z" fill="#FFD4AB"/>
<path d="M28.7261 17.261L24.307 12.1224C24.2205 12.0377 24.1043 11.9902 23.9832 11.9902C23.8622 11.9902 23.746 12.0377 23.6595 12.1224C23.5764 12.2118 23.5303 12.3293 23.5303 12.4513C23.5303 12.5733 23.5764 12.6908 23.6595 12.7802L28.0787 17.8673C28.1208 17.9105 28.1712 17.9449 28.2267 17.9683C28.2823 17.9917 28.3421 18.0038 28.4024 18.0038C28.4627 18.0038 28.5225 17.9917 28.5781 17.9683C28.6337 17.9449 28.684 17.9105 28.7261 17.8673C28.7992 17.7832 28.8394 17.6756 28.8394 17.5642C28.8394 17.4528 28.7992 17.3451 28.7261 17.261Z" fill="#FFD4AB"/>
<path d="M43.4742 8.12455L38.0684 18.2578C38.0325 18.3626 38.0354 18.4768 38.0766 18.5796C38.1178 18.6824 38.1946 18.7671 38.2929 18.8181C38.3912 18.8691 38.5046 18.8832 38.6124 18.8577C38.7202 18.8322 38.8153 18.7688 38.8803 18.6791C40.6822 15.2946 42.4841 11.9202 44.2861 8.55619C44.3284 8.45034 44.3301 8.3326 44.2909 8.22557C44.2517 8.11854 44.1743 8.02975 44.0737 7.97624C43.9731 7.92274 43.8562 7.90828 43.7455 7.93565C43.6349 7.96302 43.5383 8.03029 43.4742 8.12455Z" fill="#FFD4AB"/>
<path d="M45.9199 13.2016L41.0588 18.1654C40.6374 18.5868 41.3157 19.1932 41.7268 18.7923L46.6187 13.8285C47.0092 13.4071 46.3412 12.7391 45.9199 13.2016Z" fill="#FFD4AB"/>
<path d="M2.66337 34.557C2.595 34.3854 2.48952 34.2309 2.35449 34.1048C2.21947 33.9787 2.05823 33.8839 1.88231 33.8274C1.72184 33.7528 1.54485 33.721 1.36846 33.7349L0.977925 33.7965C0.744098 33.8638 0.533954 33.9956 0.371575 34.1768L0.155755 34.4748C0.0431117 34.6862 -0.0101605 34.9242 0.00159904 35.1634V35.2456C0.000355682 35.4256 0.046427 35.6028 0.135201 35.7595C0.193953 35.9304 0.296756 36.0829 0.433238 36.2014C0.585248 36.343 0.773969 36.4392 0.977925 36.4789C1.13942 36.5501 1.31558 36.5818 1.49178 36.5714H1.8412C2.07507 36.4976 2.28696 36.367 2.45783 36.1911L2.66337 35.8828C2.77469 35.6746 2.82793 35.4403 2.81753 35.2045V35.112C2.82009 34.9161 2.76661 34.7236 2.66337 34.557Z" fill="#FFD4AB"/>
<path d="M61.9518 21.8442C60.1739 21.8442 60.2767 24.5882 62.0443 24.5882C63.812 24.5882 63.7195 21.8442 61.9518 21.8442Z" fill="#FFD4AB"/>
<path d="M63.0723 42.2137C62.905 43.8891 62.3331 45.4988 61.4057 46.9042C60.4784 48.3095 59.2234 49.4685 57.7487 50.2812C57.4172 50.4587 57.0738 50.6132 56.721 50.7437C54.7341 51.3911 52.6321 51.6084 50.5548 51.3808C48.0985 51.2061 45.6629 50.7026 43.1963 50.5792C39.9288 50.4205 36.6631 50.9274 33.5975 52.0694L33.0323 52.2955C30.2266 53.426 27.4004 55.132 24.3995 54.7209C23.1637 54.5239 22.0062 53.9899 21.0543 53.1776C20.1024 52.3653 19.3929 51.3062 19.004 50.1168C18.6312 48.9057 18.5956 47.6159 18.9012 46.3862C16.6094 46.3348 14.3279 45.9751 12.6733 44.4746C11.6822 43.4539 10.894 42.2542 10.3507 40.9393C10.0281 40.3284 9.74659 39.6966 9.50794 39.0483C9.08959 37.5848 9.01193 36.0449 9.28093 34.5467C9.54992 33.0485 10.1584 31.6318 11.0598 30.4052C12.8918 27.9679 15.2811 26.005 18.0277 24.6809C23.5107 21.8724 29.6205 20.5114 35.7772 20.7273C41.9339 20.9431 47.9333 22.7285 53.2063 25.9141C56.114 27.621 58.623 29.9302 60.5647 32.6868C62.4955 35.4684 63.3835 38.8419 63.0723 42.2137Z" fill="#FFA8B5"/>
<path d="M56.6801 50.7643C56.6549 52.1758 56.3656 53.5701 55.8271 54.8751C54.5116 57.7938 51.4593 59.5923 48.3556 60.3426C46.4191 60.8158 44.4103 60.9169 42.436 60.6406C41.5415 60.5151 40.663 60.2946 39.8153 59.9829C38.4793 59.4999 37.1124 58.6263 36.8041 57.2492C36.4958 55.872 37.3591 54.5463 38.2018 53.4363C38.9012 52.6339 39.4355 51.7015 39.7742 50.6924C40.8837 50.579 41.9996 50.5412 43.1143 50.5793C45.5808 50.7026 48.0165 51.2062 50.4727 51.3809C52.5621 51.621 54.6787 51.4107 56.6801 50.7643Z" fill="#D66B6B"/>
<path d="M42.4361 60.5997C42.441 60.6372 42.441 60.6752 42.4361 60.7127C42.1286 62.0628 41.4691 63.3074 40.5246 64.32C39.8241 65.1973 39.0043 65.9722 38.0889 66.6221C37.4781 66.6001 36.8804 66.4384 36.3418 66.1493C35.8876 65.9001 35.489 65.5609 35.1702 65.1524C35.7399 64.662 36.1064 63.9768 36.1979 63.2306C36.2428 62.7733 36.1849 62.3116 36.0284 61.8796C35.872 61.4475 35.6209 61.0558 35.2935 60.7333C34.4611 59.9419 33.1662 59.5822 32.6934 58.534C32.506 58.0215 32.4529 57.4695 32.5393 56.9307C32.6503 55.9437 32.8815 54.9738 33.2278 54.0429C33.3784 53.6739 33.4954 53.2921 33.5773 52.9021C33.6183 52.6193 33.6183 52.332 33.5773 52.0491C35.582 51.305 37.676 50.8282 39.8052 50.6309C39.4665 51.64 38.9322 52.5724 38.2328 53.3749C37.3901 54.4848 36.5371 55.8208 36.8351 57.1877C37.1331 58.5545 38.5103 59.4384 39.8463 59.9214C40.6833 60.238 41.5514 60.4654 42.4361 60.5997Z" fill="#F28C8C"/>
<path d="M47.0915 31.2376C47.0186 31.1666 46.9209 31.127 46.8192 31.127C46.7174 31.127 46.6197 31.1666 46.5468 31.2376C45.8925 31.8328 45.4159 32.5976 45.1697 33.4472C43.9922 33.0424 42.7444 32.882 41.5028 32.9758C40.2612 33.0696 39.0517 33.4157 37.9484 33.9928C36.8451 34.57 35.871 35.3661 35.0859 36.3325C34.3007 37.2989 33.7209 38.4153 33.3818 39.6134C32.7975 38.1803 31.9106 36.8902 30.7817 35.8315C31.503 35.1821 32.0176 34.3351 32.2616 33.3958C32.2822 33.2986 32.2639 33.1973 32.2107 33.1134C32.1575 33.0296 32.0736 32.9698 31.977 32.947C31.8803 32.9242 31.7786 32.9401 31.6935 32.9913C31.6084 33.0425 31.5468 33.125 31.5217 33.2211C31.3092 34.0174 30.8678 34.7339 30.2522 35.2819C29.6366 35.8299 28.8738 36.1853 28.0583 36.3042C27.9565 36.3095 27.8609 36.3544 27.7917 36.4293C27.7226 36.5042 27.6855 36.6031 27.6883 36.705C27.6896 36.755 27.7008 36.8041 27.7212 36.8498C27.7415 36.8954 27.7706 36.9366 27.8069 36.9709C27.8432 37.0053 27.8859 37.0322 27.9325 37.05C27.9792 37.0679 28.0289 37.0764 28.0788 37.075C28.8153 36.965 29.5178 36.6911 30.1343 36.2734C31.344 37.3566 32.2716 38.7182 32.8371 40.2403C30.1898 39.6476 27.4247 39.8749 24.9096 40.892C22.3946 41.909 20.2487 43.6676 18.7575 45.9339C18.4903 46.345 19.1686 46.7047 19.4358 46.2936C20.92 44.0634 23.0754 42.3634 25.59 41.4396C28.1046 40.5158 30.8479 40.4161 33.4229 41.155C33.5223 41.1767 33.6263 41.1588 33.7126 41.1051C33.799 41.0513 33.861 40.966 33.8854 40.8672C34.0765 39.6417 34.5348 38.4732 35.2279 37.4446C35.9209 36.4159 36.8317 35.5523 37.8957 34.9148C38.9598 34.2774 40.1509 33.8818 41.3849 33.756C42.6188 33.6303 43.8654 33.7774 45.0361 34.1871C44.8954 34.9507 44.9412 35.7369 45.1697 36.4789C45.1997 36.5757 45.2669 36.6566 45.3565 36.7038C45.4461 36.751 45.5508 36.7607 45.6476 36.7307C45.7443 36.7007 45.8252 36.6335 45.8724 36.5439C45.9197 36.4543 45.9293 36.3496 45.8994 36.2528C45.6528 35.4713 45.636 34.6354 45.851 33.8447C46.066 33.0539 46.5037 32.3416 47.1121 31.7926C47.1487 31.7556 47.1774 31.7115 47.1964 31.663C47.2153 31.6145 47.2241 31.5626 47.2222 31.5106C47.2202 31.4586 47.2076 31.4075 47.1852 31.3605C47.1627 31.3136 47.1308 31.2717 47.0915 31.2376Z" fill="#F28C8C"/>
<path d="M20.7716 27.651C20.0019 27.8639 19.3165 28.3089 18.8087 28.9254C18.4067 28.5255 18.0978 28.0419 17.9042 27.5089C17.7106 26.976 17.6369 26.4069 17.6885 25.8422C17.6872 25.7914 17.6757 25.7413 17.6547 25.695C17.6337 25.6487 17.6037 25.607 17.5663 25.5725C17.5289 25.538 17.485 25.5114 17.4372 25.4942C17.3893 25.4769 17.3385 25.4695 17.2877 25.4722C17.1877 25.4775 17.0936 25.521 17.0248 25.5936C16.9559 25.6663 16.9176 25.7627 16.9177 25.8628C16.8695 26.5444 16.9736 27.2282 17.2225 27.8645C17.4713 28.5009 17.8587 29.0739 18.3565 29.542C17.9791 30.1606 17.7833 30.8728 17.7913 31.5974C17.7913 31.6983 17.8313 31.795 17.9027 31.8663C17.974 31.9376 18.0707 31.9777 18.1715 31.9777C18.2724 31.9777 18.3691 31.9376 18.4404 31.8663C18.5117 31.795 18.5518 31.6983 18.5518 31.5974C18.5548 30.8698 18.7939 30.1629 19.2332 29.5828C19.6724 29.0028 20.288 28.5809 20.9875 28.3807C21.4705 28.2573 21.2444 27.5277 20.7716 27.651Z" fill="#F28C8C"/>
<path d="M17.1337 40.0556C16.4259 39.9308 15.7596 39.634 15.1934 39.1914C14.6271 38.7488 14.1782 38.1739 13.8862 37.5172C13.8512 37.4225 13.7827 37.3441 13.6936 37.2967C13.6045 37.2493 13.5012 37.2363 13.4032 37.2602C13.3079 37.2911 13.2281 37.3573 13.1803 37.4453C13.1325 37.5333 13.1203 37.6363 13.1462 37.733C13.4675 38.4867 13.9643 39.1527 14.5953 39.6754C13.9083 40.8144 12.8009 41.6376 11.5122 41.9672C11.0291 42.0905 11.2552 42.8202 11.728 42.6968C13.1875 42.3267 14.4471 41.4059 15.2428 40.1276C15.7791 40.4654 16.3759 40.6957 17.0001 40.8059C17.4215 40.8881 17.627 40.1481 17.1337 40.0556Z" fill="#F28C8C"/>
<path d="M30.1653 47.4655C30.8481 46.8502 31.3762 46.0827 31.7069 45.2251C31.7483 45.1343 31.7545 45.0314 31.724 44.9364C31.6936 44.8413 31.6289 44.7611 31.5424 44.7112C31.4521 44.6673 31.3482 44.6598 31.2525 44.6905C31.1568 44.7211 31.0766 44.7874 31.0286 44.8757C30.7315 45.6596 30.2508 46.3609 29.6267 46.9206C29.0026 47.4803 28.2534 47.8821 27.4419 48.0924C26.9588 48.2055 27.1849 48.9454 27.6577 48.8221C28.3443 48.6489 28.9925 48.3492 29.5692 47.9383C30.1703 48.5142 30.6346 49.2175 30.928 49.9965C31.2215 50.7754 31.3366 51.6103 31.2649 52.4396C31.2462 52.5375 31.2655 52.6388 31.319 52.7229C31.3725 52.8069 31.4561 52.8674 31.5527 52.8918C31.6508 52.9133 31.7534 52.8951 31.8381 52.8412C31.9228 52.7872 31.9828 52.702 32.0049 52.6041C32.1017 51.6645 31.9867 50.7152 31.6683 49.826C31.35 48.9367 30.8364 48.1301 30.1653 47.4655Z" fill="#F28C8C"/>
<path d="M51.593 43.8477C50.9036 44.4523 50.0542 44.8449 49.147 44.9782C49.0898 44.9629 49.0295 44.9629 48.9723 44.9782C48.2458 45.0659 47.5089 44.9922 46.8141 44.7624C46.3414 44.6082 46.1769 45.3482 46.6394 45.5126C47.3252 45.7354 48.0477 45.8226 48.7668 45.7695C48.8965 46.5246 48.8608 47.2988 48.6621 48.0388C48.4633 48.7787 48.1063 49.4666 47.6157 50.0551C47.2971 50.4251 47.8624 50.9492 48.181 50.5689C48.7409 49.8945 49.1507 49.1084 49.3828 48.263C49.615 47.4177 49.6642 46.5326 49.5273 45.6668C50.5073 45.469 51.4161 45.011 52.1582 44.341C52.5282 44.0327 51.9629 43.5702 51.593 43.8477Z" fill="#F28C8C"/>
<path d="M60.5859 32.2658C60.5717 32.2178 60.5483 32.1732 60.5169 32.1343C60.4854 32.0955 60.4467 32.0632 60.4028 32.0393C60.3589 32.0155 60.3107 32.0005 60.261 31.9953C60.2113 31.99 60.161 31.9946 60.1131 32.0088C59.1563 32.1889 58.2473 32.566 57.4441 33.1162C56.6408 33.6665 55.9608 34.3778 55.4473 35.205C55.2872 34.8077 55.2238 34.3779 55.2623 33.9512C55.2838 33.8531 55.2656 33.7505 55.2117 33.6658C55.1578 33.5811 55.0725 33.5211 54.9746 33.499C54.8765 33.4776 54.7739 33.4958 54.6892 33.5497C54.6044 33.6036 54.5445 33.6888 54.5224 33.7868C54.4071 34.6445 54.6191 35.5142 55.1162 36.2227C55.6133 36.9311 56.3589 37.4264 57.2047 37.6099C57.3042 37.6317 57.4083 37.6131 57.494 37.5581C57.5798 37.5032 57.6402 37.4165 57.662 37.317C57.6838 37.2175 57.6652 37.1134 57.6103 37.0276C57.5554 36.9419 57.4686 36.8814 57.3691 36.8596C56.7862 36.7257 56.2651 36.4 55.8892 35.9347C56.3358 35.1153 56.9596 34.4058 57.7153 33.8582C58.4709 33.3106 59.3393 32.9386 60.257 32.7693C60.3141 32.7629 60.369 32.7438 60.4179 32.7137C60.4668 32.6835 60.5084 32.643 60.5398 32.5949C60.5712 32.5468 60.5916 32.4923 60.5996 32.4355C60.6076 32.3786 60.6029 32.3206 60.5859 32.2658Z" fill="#F28C8C"/>
<path d="M61.4074 46.8487C60.9025 45.3311 59.8462 44.0584 58.4476 43.2826C58.9012 42.4255 59.0772 41.4487 58.9512 40.4872C58.8792 39.9939 58.1187 40.0761 58.1907 40.5591C58.2815 41.2384 58.1948 41.9296 57.9391 42.5654C57.6833 43.2011 57.2672 43.7598 56.7313 44.187C56.3511 44.4953 56.793 45.1119 57.1835 44.8139C57.513 44.548 57.8066 44.2405 58.0571 43.8992C59.3047 44.5911 60.2445 45.7292 60.688 47.0851C60.8422 47.5887 61.5513 47.3215 61.4074 46.8487Z" fill="#F28C8C"/>
<path d="M47.1328 27.3323C46.8885 26.8167 46.5373 26.3591 46.1024 25.9898C45.6676 25.6205 45.1591 25.348 44.6107 25.1905C44.0624 25.033 43.4868 24.9941 42.9223 25.0763C42.3577 25.1586 41.8171 25.36 41.3365 25.6674C40.792 24.8202 39.9835 24.1758 39.0362 23.834C38.0888 23.4922 37.0552 23.472 36.0952 23.7764C35.6224 23.9306 35.8485 24.6705 36.311 24.5061C37.1763 24.226 38.1131 24.2636 38.9532 24.612C39.7933 24.9605 40.4816 25.597 40.8946 26.4074C40.9209 26.4499 40.9553 26.4869 40.9958 26.5161C41.0364 26.5454 41.0824 26.5663 41.1311 26.5778C41.1797 26.5892 41.2302 26.591 41.2796 26.5829C41.3289 26.5748 41.3762 26.5571 41.4187 26.5307C41.8088 26.2122 42.2671 25.9878 42.7579 25.8751C43.2488 25.7623 43.759 25.7641 44.249 25.8804C44.739 25.9967 45.1957 26.2243 45.5835 26.5456C45.9713 26.8669 46.2799 27.2733 46.4853 27.7331C46.6909 28.1545 47.3383 27.7742 47.1328 27.3323Z" fill="#F28C8C"/>
<path d="M43.2168 48.2258C41.4096 47.8448 39.5369 47.9083 37.7596 48.4108C37.7117 48.4257 37.6672 48.4498 37.6286 48.4819C37.59 48.5139 37.5581 48.5533 37.5348 48.5976C37.5114 48.642 37.497 48.6906 37.4923 48.7405C37.4877 48.7904 37.493 48.8408 37.5078 48.8887C37.5227 48.9366 37.5468 48.9812 37.5789 49.0197C37.6109 49.0583 37.6503 49.0902 37.6946 49.1136C37.739 49.137 37.7876 49.1514 37.8375 49.156C37.8874 49.1606 37.9378 49.1554 37.9857 49.1405C39.6327 48.6773 41.367 48.6173 43.0421 48.9658C43.1392 48.9864 43.2406 48.9681 43.3244 48.9149C43.4083 48.8617 43.468 48.7778 43.4908 48.6812C43.5137 48.5845 43.4978 48.4828 43.4465 48.3977C43.3953 48.3126 43.3129 48.2509 43.2168 48.2258Z" fill="#F28C8C"/>
<path d="M23.8035 52.501C23.0004 52.0804 22.338 51.4339 21.8979 50.6414C21.4578 49.8488 21.2593 48.9448 21.3267 48.0408C21.3117 47.9494 21.2647 47.8662 21.1941 47.8063C21.1235 47.7463 21.0339 47.7134 20.9413 47.7134C20.8487 47.7134 20.759 47.7463 20.6884 47.8063C20.6179 47.8662 20.5709 47.9494 20.5559 48.0408C20.4909 49.0845 20.7289 50.1247 21.2413 51.0364C21.7536 51.948 22.5184 52.6921 23.4438 53.1793C23.5337 53.227 23.6389 53.237 23.7363 53.2072C23.8336 53.1773 23.9151 53.11 23.9628 53.02C24.0105 52.9301 24.0205 52.8249 23.9906 52.7275C23.9607 52.6302 23.8934 52.5487 23.8035 52.501Z" fill="#F28C8C"/>
<path d="M25.222 51.6377L23.8757 50.5073C23.8021 50.4378 23.7039 50.4003 23.6027 50.4032C23.5015 50.4061 23.4056 50.4491 23.3361 50.5227C23.2666 50.5963 23.2292 50.6945 23.2321 50.7956C23.235 50.8968 23.2779 50.9927 23.3515 51.0622L24.6978 52.1927C24.7708 52.2637 24.8685 52.3033 24.9702 52.3033C25.0719 52.3033 25.1696 52.2637 25.2425 52.1927C25.2792 52.1558 25.3079 52.1117 25.3268 52.0632C25.3458 52.0147 25.3546 51.9628 25.3526 51.9108C25.3507 51.8587 25.3381 51.8077 25.3156 51.7607C25.2932 51.7137 25.2613 51.6719 25.222 51.6377Z" fill="#F28C8C"/>
<path d="M12.5502 29.9017C11.6506 30.7888 10.9903 31.8893 10.6309 33.1005C10.2715 34.3118 10.2247 35.5943 10.4948 36.8285C10.6078 37.3115 11.3375 37.0854 11.2347 36.6024C11.0057 35.4985 11.059 34.3547 11.3895 33.2768C11.7201 32.1989 12.3172 31.2219 13.1257 30.4361C13.4649 30.0764 12.9099 29.5523 12.5502 29.9017Z" fill="#F28C8C"/>
<path d="M77.4641 23.3348C76.4363 20.1695 71.7294 18.4327 64.3196 18.5046C59.1273 18.6201 53.9611 19.2745 48.9039 20.4572C49.0992 20.5703 49.2842 20.6936 49.4795 20.7964L50.0961 21.0944H50.1783C54.8259 20.0745 59.5624 19.5134 64.3196 19.4193H64.6176C71.3492 19.4193 75.7067 20.9403 76.5802 23.6226C77.4538 26.3049 74.7714 30.2102 69.1704 34.2491C63.3536 38.4319 55.0702 42.4297 45.8208 45.4409C27.322 51.5044 10.0667 51.7922 8.18599 45.9856C7.29188 43.2416 9.99476 39.5624 15.0614 35.7907C15.0936 35.3458 15.152 34.9031 15.2361 34.465C9.32675 38.6991 6.23334 42.9641 7.31244 46.2631C8.39153 49.562 13.1807 51.1242 20.1999 51.1242C27.2192 51.1242 36.335 49.5209 46.1497 46.3145C55.3991 43.2313 63.816 39.2541 69.7151 35.0096C75.6142 30.7652 78.502 26.5002 77.4641 23.3348Z" fill="#FFD4AB"/>
<path d="M63.2265 34.8553C63.0621 35.1122 62.8874 35.3691 62.7127 35.6158C68.067 39.5622 70.6466 43.3339 69.773 45.9854C67.8923 51.7509 50.637 51.5042 32.0868 45.4407C13.5366 39.3772 -0.522453 29.3879 1.36854 23.6224C2.25237 20.9092 6.72291 19.3882 13.6291 19.4191C18.0129 19.5063 22.379 20.0017 26.6708 20.899L28.2124 20.2721C23.4424 19.2028 18.578 18.6107 13.6908 18.5044H13.3105C6.04462 18.5044 1.49186 20.2104 0.474427 23.3346C-1.581 29.7887 12.1184 39.8808 31.7888 46.3143C41.6035 49.5207 50.7604 51.124 57.7385 51.124C64.7167 51.124 69.5675 49.5002 70.626 46.2629C71.6846 43.0256 69.0228 39.1203 63.2265 34.8553Z" fill="#FFD4AB"/>
<path d="M6.72284 25.3286C4.9449 25.3286 5.04767 28.0726 6.81533 28.0726C8.583 28.0726 8.4905 25.3286 6.72284 25.3286Z" fill="#FFD4AB"/>
<path d="M8.85028 44.958C7.07234 44.958 7.17511 47.702 8.94277 47.702C10.7104 47.702 10.6179 44.958 8.85028 44.958Z" fill="#FFD4AB"/>
<path d="M65.2614 42.4092C63.4835 42.4092 63.5862 45.1532 65.3539 45.1532C67.1216 45.1532 67.0291 42.4092 65.2614 42.4092Z" fill="#FFD4AB"/>
<path d="M71.4689 34.2493C69.691 34.2493 69.7938 36.9933 71.5614 36.9933C73.3291 36.9933 73.2366 34.2493 71.4689 34.2493Z" fill="#FFD4AB"/>
</svg>
