<svg width="65" height="63" viewBox="0 0 65 63" fill="none" xmlns="http://www.w3.org/2000/svg">
<g clip-path="url(#clip0_108_587)">
<path d="M60.0137 52.935C49.3305 67.2297 19.42 63.791 7.32829 48.6703C1.03875 40.805 1.14143 31.7424 1.19793 29.924C1.63201 15.9847 12.6134 1.76031 26.5355 0.160793C36.9579 -1.03671 45.0071 5.30261 47.503 7.26826C60.7827 17.7279 69.4875 40.259 60.0137 52.935Z" fill="#F4F7FA"/>
<path d="M50.2054 26.1993H50.1868C50.0965 26.1952 50.011 26.1573 49.9473 26.0931C49.8836 26.0288 49.8464 25.943 49.8431 25.8527L49.494 14.7749L48.6754 20.2404C48.6614 20.3275 48.6162 20.4065 48.5482 20.4627C48.4802 20.5189 48.3941 20.5483 48.3059 20.5456C48.2177 20.5428 48.1336 20.5081 48.0692 20.4478C48.0048 20.3875 47.9646 20.3058 47.9561 20.218L47.264 12.1622L46.3719 21.7095C46.3645 21.787 46.332 21.8601 46.2794 21.9175C46.2268 21.975 46.157 22.0138 46.0804 22.0281C46.0038 22.043 45.9245 22.033 45.8541 21.9995C45.7837 21.966 45.7258 21.9108 45.6891 21.842L43.2896 17.2804H19.0796L17.6241 25.195C17.6077 25.2793 17.5619 25.355 17.495 25.4087C17.4281 25.4625 17.3443 25.4908 17.2585 25.4886C17.1727 25.4864 17.0905 25.4539 17.0264 25.3968C16.9623 25.3398 16.9205 25.2619 16.9084 25.1769L15.0116 10.6792L13.1381 16.243C13.1108 16.3222 13.057 16.3895 12.9858 16.4336C12.9145 16.4776 12.8303 16.4957 12.7472 16.4847C12.6642 16.4737 12.5875 16.4344 12.5302 16.3733C12.4729 16.3123 12.4384 16.2333 12.4327 16.1497L12.0493 9.3463L9.91144 21.5133C9.89654 21.5942 9.85457 21.6677 9.79242 21.7217C9.73027 21.7756 9.65162 21.8069 9.56939 21.8103C9.48715 21.8137 9.4062 21.789 9.33982 21.7403C9.27344 21.6917 9.22557 21.6219 9.20406 21.5424L7.57764 15.3731L6.17116 18.1309C6.1406 18.1903 6.09421 18.2401 6.03712 18.2749C5.98003 18.3096 5.91446 18.3279 5.84763 18.3277H0.361651C0.312784 18.3307 0.26382 18.3237 0.217775 18.307C0.17173 18.2904 0.129578 18.2645 0.0939143 18.231C0.0582511 18.1974 0.0298313 18.1569 0.010405 18.112C-0.00902128 18.067 -0.019043 18.0186 -0.019043 17.9696C-0.019043 17.9207 -0.00902128 17.8722 0.010405 17.8273C0.0298313 17.7824 0.0582511 17.7419 0.0939143 17.7083C0.129578 17.6748 0.17173 17.6489 0.217775 17.6323C0.26382 17.6156 0.312784 17.6086 0.361651 17.6116H5.62364L7.3615 14.2036C7.39508 14.1385 7.44753 14.0851 7.51197 14.0503C7.57642 14.0155 7.64987 14.001 7.7227 14.0087C7.79553 14.0163 7.86436 14.0458 7.92016 14.0932C7.97597 14.1406 8.01616 14.2038 8.03547 14.2744L9.48342 19.7631L11.8775 6.13919C11.8942 6.05298 11.9416 5.97574 12.0109 5.92183C12.0802 5.86792 12.1668 5.841 12.2544 5.84606C12.3421 5.85113 12.4249 5.88785 12.4876 5.94939C12.5502 6.01093 12.5884 6.09311 12.595 6.18067L13.0502 14.2359L14.8237 8.96805C14.8501 8.89085 14.9018 8.82482 14.9704 8.7806C15.0389 8.73638 15.1204 8.71655 15.2017 8.72433C15.2829 8.7321 15.3591 8.76702 15.4181 8.82344C15.477 8.87986 15.5152 8.9545 15.5266 9.03532L17.3276 22.8007L18.4207 16.8591C18.4363 16.7762 18.4805 16.7014 18.5456 16.6477C18.6107 16.594 18.6926 16.5648 18.7769 16.5652H43.5096C43.5756 16.565 43.6405 16.5829 43.6971 16.6168C43.7537 16.6508 43.8 16.6996 43.8309 16.758L45.764 20.4319L46.9185 8.07525C46.9273 7.98586 46.9692 7.90298 47.0359 7.84284C47.1026 7.78271 47.1894 7.74965 47.2792 7.75014H47.2806C47.3705 7.75017 47.4571 7.78381 47.5235 7.84446C47.5899 7.90511 47.6312 7.98839 47.6393 8.07794L48.4142 17.0928L49.3709 10.7039C49.3849 10.615 49.4314 10.5345 49.5014 10.478C49.5714 10.4215 49.6599 10.3931 49.7498 10.3982C49.8396 10.4034 49.9243 10.4417 49.9874 10.5058C50.0505 10.57 50.0875 10.6553 50.0913 10.7451L50.4298 21.4684L51.448 13.9182C51.4602 13.8318 51.5033 13.7528 51.5692 13.6957C51.6351 13.6385 51.7195 13.6072 51.8067 13.6074H51.8078C51.8954 13.6071 51.9801 13.6387 52.0461 13.6962C52.1121 13.7538 52.1549 13.8334 52.1666 13.9202L52.9235 19.775L53.6374 17.0192C53.6574 16.9446 53.7006 16.8783 53.7608 16.8299C53.821 16.7815 53.8951 16.7536 53.9722 16.7502C54.0494 16.7467 54.1256 16.7679 54.1899 16.8107C54.2542 16.8536 54.3032 16.9157 54.3297 16.9883L56.6772 23.5197L59.1332 17.0439C59.1596 16.9754 59.2061 16.9164 59.2667 16.875C59.3273 16.8335 59.399 16.8114 59.4725 16.8116H64.5818C64.6769 16.8116 64.7682 16.8494 64.8354 16.9167C64.9027 16.9839 64.9405 17.0752 64.9405 17.1703C64.9405 17.2655 64.9027 17.3567 64.8354 17.424C64.7682 17.4913 64.6769 17.5291 64.5818 17.5291H59.7234L57.0073 24.6908C56.9801 24.7594 56.933 24.8183 56.8719 24.8598C56.8108 24.9013 56.7387 24.9234 56.6649 24.9233C56.591 24.9229 56.5189 24.8998 56.4585 24.8572C56.398 24.8146 56.3521 24.7545 56.3268 24.685L54.0446 18.3353L53.1553 21.768C53.1338 21.849 53.0848 21.92 53.0169 21.969C52.9489 22.018 52.866 22.042 52.7824 22.0368C52.6987 22.0317 52.6194 21.9978 52.558 21.9409C52.4965 21.884 52.4566 21.8075 52.445 21.7245L51.7995 16.7325L50.5644 25.891C50.5516 25.977 50.5083 26.0555 50.4424 26.1121C50.3765 26.1687 50.2923 26.1997 50.2054 26.1993Z" fill="#D8DEE8"/>
<path d="M52.1601 49.0412H52.1415C52.0512 49.0371 51.9657 48.9992 51.9021 48.935C51.8384 48.8707 51.8013 48.7849 51.798 48.6946L51.4487 37.617L50.6303 43.0824C50.6165 43.1696 50.5714 43.2488 50.5034 43.3051C50.4354 43.3614 50.3491 43.3909 50.2609 43.3882C50.1726 43.3854 50.0884 43.3506 50.0241 43.2901C49.9597 43.2297 49.9196 43.1479 49.9113 43.06L49.2189 35.0041L48.327 44.5516C48.3195 44.6291 48.2871 44.7021 48.2345 44.7596C48.1819 44.817 48.1121 44.8558 48.0355 44.87C47.959 44.885 47.8797 44.8751 47.8093 44.8416C47.7388 44.808 47.6811 44.7528 47.6445 44.6839L45.245 40.1228H16.3994L14.9439 48.0374C14.9275 48.1217 14.8818 48.1974 14.8148 48.2511C14.7479 48.3048 14.6641 48.3331 14.5783 48.331C14.4925 48.3288 14.4103 48.2963 14.3462 48.2392C14.2821 48.1822 14.2403 48.1042 14.2282 48.0193L12.3309 33.5207L10.4579 39.0845C10.4306 39.1637 10.3768 39.231 10.3056 39.275C10.2344 39.3191 10.1502 39.3372 10.0671 39.3262C9.98413 39.3153 9.90746 39.276 9.85011 39.2149C9.79276 39.1539 9.75828 39.075 9.75249 38.9914L9.36864 32.188L7.2308 44.3541C7.21546 44.4347 7.1733 44.5077 7.11119 44.5612C7.04908 44.6148 6.97067 44.6457 6.88872 44.6491C6.80678 44.6524 6.72612 44.6279 6.65987 44.5795C6.59362 44.5312 6.54569 44.4619 6.52386 44.3828L4.89632 38.2143L3.48985 40.9721C3.45924 41.0315 3.41285 41.0813 3.35577 41.116C3.29869 41.1508 3.23313 41.1691 3.16631 41.169H0.361666C0.266523 41.169 0.175277 41.1312 0.108001 41.0639C0.040725 40.9966 0.00292969 40.9054 0.00292969 40.8102C0.00292969 40.7151 0.040725 40.6238 0.108001 40.5566C0.175277 40.4893 0.266523 40.4515 0.361666 40.4515H2.943L4.68085 37.0435C4.71443 36.9784 4.76688 36.925 4.83133 36.8902C4.89578 36.8554 4.96922 36.8409 5.04206 36.8486C5.11489 36.8562 5.18371 36.8857 5.23952 36.9331C5.29533 36.9805 5.33552 37.0437 5.35483 37.1143L6.803 42.6028L9.1969 28.9791C9.21355 28.8929 9.26092 28.8157 9.33022 28.7617C9.39951 28.7078 9.48602 28.6809 9.57368 28.6859C9.66134 28.6909 9.74419 28.7276 9.80685 28.7891C9.8695 28.8506 9.90771 28.9328 9.91437 29.0204L10.3695 37.0758L12.143 31.8068C12.1696 31.7298 12.2214 31.664 12.2899 31.6199C12.3584 31.5758 12.4398 31.5561 12.5209 31.5638C12.6021 31.5716 12.6782 31.6064 12.7372 31.6627C12.7961 31.719 12.8344 31.7934 12.8459 31.8741L14.647 45.6406L15.74 39.699C15.7557 39.6159 15.8002 39.541 15.8655 39.4873C15.9309 39.4336 16.0131 39.4046 16.0976 39.4053H45.4647C45.5308 39.4052 45.5956 39.4231 45.6522 39.4571C45.7089 39.4911 45.7552 39.5398 45.7862 39.5981L47.7194 43.2721L48.8738 30.9156C48.8826 30.8262 48.9244 30.7433 48.9911 30.6831C49.0578 30.623 49.1445 30.5898 49.2344 30.5903H49.2357C49.3256 30.5905 49.4122 30.6242 49.4786 30.6849C49.5449 30.7455 49.5862 30.8288 49.5944 30.9183L50.3691 39.9329L51.3258 33.5429C51.3398 33.454 51.3863 33.3735 51.4564 33.317C51.5264 33.2605 51.6149 33.2321 51.7048 33.2373C51.7946 33.2425 51.8793 33.2809 51.9424 33.345C52.0055 33.4092 52.0425 33.4945 52.0462 33.5844L52.3841 44.3075L53.4029 36.7596C53.415 36.6732 53.458 36.5941 53.5239 36.537C53.5899 36.4798 53.6744 36.4485 53.7616 36.4489C53.8492 36.4486 53.9338 36.4801 53.9998 36.5376C54.0658 36.5951 54.1087 36.6747 54.1204 36.7614L54.8773 42.6162L55.5914 39.8607C55.6114 39.7862 55.6546 39.7199 55.7148 39.6716C55.775 39.6233 55.849 39.5953 55.9261 39.5919C56.0032 39.5884 56.0794 39.6096 56.1436 39.6523C56.2079 39.695 56.2569 39.7571 56.2835 39.8295L58.631 46.3612L61.087 39.8854C61.1134 39.8168 61.1599 39.7579 61.2205 39.7164C61.2811 39.6749 61.3528 39.6527 61.4262 39.6529H64.5809C64.676 39.6529 64.7673 39.6907 64.8345 39.7579C64.9018 39.8252 64.9396 39.9164 64.9396 40.0116C64.9396 40.1067 64.9018 40.198 64.8345 40.2653C64.7673 40.3325 64.676 40.3703 64.5809 40.3703H61.6774L58.9622 47.5303C58.935 47.5988 58.8878 47.6577 58.8267 47.6991C58.7657 47.7405 58.6936 47.7626 58.6198 47.7625C58.5458 47.7621 58.4738 47.7391 58.4133 47.6965C58.3528 47.654 58.3068 47.5939 58.2815 47.5244L55.9995 41.1748L55.1102 44.607C55.0887 44.688 55.0397 44.759 54.9718 44.808C54.9038 44.857 54.8209 44.881 54.7373 44.8759C54.6537 44.8707 54.5744 44.8368 54.5129 44.7799C54.4514 44.723 54.4115 44.6465 54.3999 44.5635L53.7544 39.5715L52.5193 48.7302C52.5072 48.8168 52.4641 48.896 52.398 48.9531C52.332 49.0103 52.2474 49.0416 52.1601 49.0412Z" fill="#D8DEE8"/>
<path d="M15.0283 27.2168C15.0283 27.2168 17.4146 24.5124 17.5738 17.3534C17.733 10.1943 16.4601 9.23966 18.5282 8.60335C20.5964 7.96704 22.3463 7.96704 22.8237 9.55781C23.301 11.1486 22.9829 19.1033 25.051 22.7625C27.1191 26.4216 15.0283 27.2168 15.0283 27.2168Z" fill="#FF9085"/>
<path d="M31.7322 28.4894C31.7322 28.4894 26.6413 26.1029 24.255 23.0803C21.8688 20.0578 21.0744 8.92123 29.3459 6.85312C37.6175 4.785 39.2096 12.8985 39.3681 15.1265C39.5267 17.3545 35.8687 18.3069 35.8687 18.3069L39.6867 20.2161C39.6867 20.2161 45.5732 22.4431 44.1414 31.6705C42.7096 40.8979 31.7322 28.4894 31.7322 28.4894Z" fill="#FF9085"/>
<path style="mix-blend-mode:multiply" opacity="0.3" d="M40.9605 23.7168C39.9244 23.1762 39.4186 23.6094 37.7788 22.9213C34.9761 21.7457 34.4418 19.6372 31.415 15.7622C28.0743 11.4859 26.5534 11.2706 26.6422 9.71684C26.6954 8.7904 27.2895 7.96127 28.1704 7.23169C21.1589 10.0191 21.9894 20.2092 24.256 23.0804C26.6422 26.103 31.7331 28.4895 31.7331 28.4895C31.7331 28.4895 41.5654 39.6023 43.832 32.9683C43.9129 26.7882 42.4955 24.5176 40.9605 23.7168Z" fill="#FF9085"/>
<path d="M25.687 25.7851C25.687 25.7851 27.2789 15.1262 36.5052 13.217C45.7314 11.3079 45.4142 12.5807 45.7323 14.0125C46.0505 15.4443 44.6189 16.2398 41.2779 16.8761C37.937 17.5124 32.6871 21.8088 37.3007 30.8761L25.687 25.7851Z" fill="#FF9085"/>
<path style="mix-blend-mode:multiply" opacity="0.3" d="M44.7991 12.4661C44.3484 13.1572 43.8063 13.7843 43.1877 14.3304C40.0263 17.1036 36.6822 16.0303 33.8013 17.8303C31.9792 18.9688 30.0218 21.4576 29.4873 27.4505L37.3013 30.8757C32.6877 21.8076 37.9376 17.5128 41.2785 16.8758C44.6195 16.2389 46.0522 15.444 45.7329 14.0122C45.5921 13.3779 45.5753 12.7753 44.7991 12.4661Z" fill="#FF9085"/>
<path d="M19.801 21.6479C15.181 23.381 12.8987 28.9242 12.642 33.1024C12.1936 40.4186 17.8195 45.7341 20.2784 48.0572C23.5122 51.112 27.0944 52.8483 28.3921 53.4663C31.0887 54.7503 31.3943 54.4458 36.5056 56.4891C41.5575 58.5085 42.1288 59.1536 43.5057 58.8753C47.0482 58.1594 48.7222 52.786 49.5511 50.1255C51.2791 44.5779 52.4701 34.3969 47.0056 30.08C45.6624 29.0188 44.1685 28.5105 42.2328 27.8527C37.3318 26.1864 36.2688 27.5736 32.8465 26.1039C29.0206 24.4602 29.0511 22.171 25.3693 21.3313C24.7635 21.1923 22.3306 20.6997 19.801 21.6479Z" fill="#FF9085"/>
<path style="mix-blend-mode:multiply" opacity="0.3" d="M36.6653 49.4895C33.8344 46.0329 34.0167 44.0096 30.6196 41.376C24.8521 36.9042 19.6479 39.1093 17.2567 35.0125C15.7321 32.4007 16.0074 28.3534 17.8932 26.4214C19.4381 24.8385 21.3716 25.3845 22.3476 23.876C22.8438 23.1094 22.8846 22.1327 22.6615 21.0881C21.7956 21.1227 20.8062 21.2718 19.801 21.6487C15.181 23.3818 12.8987 28.925 12.642 33.1031C12.1936 40.4193 17.8195 45.7349 20.2784 48.0579C23.5122 51.1128 27.0944 52.8491 28.3921 53.467C31.0887 54.7511 31.3943 54.4466 36.5056 56.4898C41.5575 58.5093 42.1288 59.1543 43.5057 58.8761C44.8088 58.6126 45.8585 57.718 46.707 56.5609C41.6701 54.5311 38.6152 51.8715 36.6653 49.4895Z" fill="#FF9085"/>
<g style="mix-blend-mode:soft-light">
<path d="M46.2825 49.6176C47.2805 46.9416 47.5421 43.9511 46.9383 41.105C46.6336 39.6924 46.1814 38.305 45.5368 37.0006L45.2931 36.5129C45.2126 36.3499 45.1153 36.1952 45.0269 36.036C44.9386 35.8768 44.8476 35.7188 44.7536 35.5625L44.4527 35.1049C44.3498 34.954 44.2574 34.7961 44.1422 34.6533L43.8075 34.2183C43.5931 33.9213 43.3366 33.6578 43.0947 33.3823C42.8597 33.1002 42.579 32.8612 42.3165 32.604C42.0597 32.3404 41.7586 32.1265 41.4754 31.8922C41.1907 31.6587 40.8912 31.444 40.5786 31.2494C40.2708 31.0476 39.9508 30.8682 39.627 30.6935C38.9807 30.3525 38.3096 30.0609 37.6192 29.8211C36.9347 29.5824 36.2428 29.3844 35.563 29.1933C34.8832 29.0023 34.2101 28.8256 33.5915 28.5723C32.9729 28.3189 32.4131 27.9909 32.0236 27.4943C31.6337 27.001 31.3911 26.3681 31.323 25.7096C31.3064 25.5697 31.2979 25.4282 31.2947 25.286C31.1302 25.1804 30.9748 25.0737 30.8272 24.9663C30.7918 25.2245 30.7768 25.4851 30.7824 25.7457C30.8048 26.4941 31.0044 27.2649 31.4591 27.9127C31.6854 28.234 31.9613 28.5173 32.2765 28.7521C32.5862 28.9873 32.9218 29.172 33.2604 29.3285C33.9395 29.6404 34.6281 29.8586 35.302 30.0731L35.3343 30.0832H35.3128C35.3576 31.5321 35.6702 32.9908 36.3065 34.3004C36.6271 34.952 37.0172 35.573 37.4798 36.1284C37.9372 36.6889 38.4616 37.1714 38.9533 37.6472C39.445 38.123 39.895 38.6082 40.1878 39.1925C40.4903 39.7811 40.6539 40.4312 40.666 41.0929C40.6733 41.4286 40.6529 41.7644 40.6051 42.0969C40.5533 42.4325 40.4795 42.7644 40.384 43.0903C40.1954 43.7462 39.9284 44.3827 39.6174 44.9973L39.7573 45.0733C40.1069 44.4706 40.4158 43.8401 40.649 43.1753C40.7676 42.8422 40.864 42.5016 40.9378 42.1558C41.0089 41.8055 41.051 41.4499 41.0636 41.0926C41.0908 40.363 40.9507 39.6367 40.6539 38.9696C40.3625 38.29 39.8813 37.7192 39.4098 37.2044C38.9345 36.6887 38.4638 36.2013 38.0746 35.6629C37.6845 35.1295 37.3587 34.5519 37.104 33.9421C36.6421 32.8321 36.4329 31.6328 36.4247 30.4328C37.3744 30.753 38.2908 31.1139 39.1533 31.5803C39.7492 31.9065 40.3241 32.2711 40.8515 32.698C41.1136 32.913 41.3943 33.1065 41.6326 33.35C41.8759 33.5867 42.1389 33.8042 42.3582 34.0657C42.5842 34.3199 42.8247 34.5616 43.0256 34.8383L43.3395 35.2419C43.4487 35.373 43.5337 35.5226 43.6339 35.6609L43.9254 36.0836C44.0164 36.2282 44.1021 36.3768 44.1909 36.5232C44.2796 36.6696 44.3718 36.8147 44.4509 36.9667L44.6902 37.423L44.8099 37.651L44.918 37.8853L45.1339 38.3539C45.2038 38.5109 45.2646 38.6725 45.3303 38.8317C45.396 38.9909 45.4648 39.1496 45.5197 39.3129C45.7664 39.957 45.9646 40.6207 46.1341 41.2895C46.8098 43.9603 46.7139 46.8181 45.9787 49.5214L46.2825 49.6176Z" fill="white"/>
</g>
<g style="mix-blend-mode:soft-light">
<path d="M29.1256 25.9336C29.3077 25.5538 29.4065 25.1464 29.448 24.7453C29.4793 24.4245 29.4759 24.1012 29.4379 23.7812C29.2671 23.6191 29.1016 23.459 28.9337 23.3022C28.931 23.3948 28.9296 23.4886 28.9254 23.5805C28.903 23.9466 28.8702 24.306 28.8014 24.6509C28.6669 25.3376 28.3936 25.978 27.8992 26.4174C27.4138 26.8611 26.7266 27.0484 26.0077 27.1389C25.2856 27.2358 24.5239 27.2557 23.7526 27.3649C22.9843 27.4703 22.1899 27.6838 21.5027 28.1172C21.1601 28.3309 20.8494 28.5917 20.5796 28.892C20.3153 29.1904 20.0888 29.5203 19.9054 29.8743C19.7225 30.2207 19.5752 30.5848 19.466 30.961C19.3498 31.3323 19.2749 31.7117 19.209 32.0904C19.0929 32.8505 19.0628 33.615 19.0848 34.3744L19.244 34.3769C19.2942 33.626 19.3834 32.8798 19.5458 32.1547C19.6321 31.7938 19.7265 31.4355 19.8579 31.0924C19.9805 30.7495 20.135 30.4187 20.3193 30.1046C20.683 29.4815 21.1868 28.9575 21.7971 28.6064C22.4065 28.2503 23.1116 28.0889 23.8356 28.001C23.98 27.9835 24.1271 27.9712 24.2726 27.9591C24.4744 28.5008 24.564 29.0846 24.5033 29.6615C24.4666 30.0022 24.3861 30.3367 24.2638 30.6568C24.1423 30.9864 23.9811 31.3113 23.8268 31.6597C23.6742 32.003 23.5257 32.3996 23.5396 32.8289C23.5452 33.2583 23.7506 33.6585 24.0172 33.9484C24.2862 34.2442 24.6093 34.4619 24.9421 34.6417C25.2749 34.8162 25.6206 34.9651 25.9761 35.087L26.0344 34.9388C25.7 34.7932 25.3771 34.6222 25.0687 34.4273C24.7667 34.2318 24.4858 34.0027 24.2773 33.7323C24.0688 33.4619 23.945 33.1455 23.9681 32.8289C23.9836 32.5133 24.1199 32.2023 24.2932 31.8873C24.4665 31.5722 24.66 31.2474 24.8241 30.894C24.9955 30.5345 25.1199 30.1544 25.1941 29.7631C25.3098 29.1476 25.2802 28.5098 25.1358 27.9008C25.451 27.8815 25.7694 27.8604 26.0934 27.8239C26.4817 27.7746 26.8781 27.7064 27.2698 27.5708C27.6615 27.4351 28.0458 27.2344 28.3653 26.9472C28.6842 26.6638 28.9428 26.3191 29.1256 25.9336Z" fill="white"/>
</g>
</g>
<defs>
<clipPath id="clip0_108_587">
<rect width="64.9445" height="62.0089" fill="white" transform="translate(0 0.0114746)"/>
</clipPath>
</defs>
</svg>
