<svg width="207" height="167" viewBox="0 0 207 167" fill="none" xmlns="http://www.w3.org/2000/svg">
<path d="M136.316 0H3.93699C1.76265 0 0 1.76265 0 3.93699V85.4646C0 87.639 1.76265 89.4016 3.93699 89.4016H136.316C138.49 89.4016 140.253 87.639 140.253 85.4646V3.93699C140.253 1.76265 138.49 0 136.316 0Z" fill="#EBEBEB"/>
<path d="M140.253 4.52344H0V76.5886H140.253V4.52344Z" fill="#FAFAFA"/>
<path d="M95.229 31.8257C95.2314 30.934 95.5867 30.0796 96.2172 29.4491C96.8477 28.8186 97.7021 28.4634 98.5937 28.4609H203.427C204.319 28.4634 205.174 28.8186 205.804 29.4491C206.434 30.0796 206.79 30.934 206.792 31.8257V42.657H95.229V31.8257Z" fill="#E6E6E6"/>
<path d="M122.441 38.107C123.847 38.107 124.986 36.9674 124.986 35.5617C124.986 34.1559 123.847 33.0164 122.441 33.0164C121.035 33.0164 119.896 34.1559 119.896 35.5617C119.896 36.9674 121.035 38.107 122.441 38.107Z" fill="white"/>
<path d="M113.422 38.107C114.828 38.107 115.967 36.9674 115.967 35.5617C115.967 34.1559 114.828 33.0164 113.422 33.0164C112.016 33.0164 110.876 34.1559 110.876 35.5617C110.876 36.9674 112.016 38.107 113.422 38.107Z" fill="white"/>
<path d="M104.408 38.107C105.814 38.107 106.953 36.9674 106.953 35.5617C106.953 34.1559 105.814 33.0164 104.408 33.0164C103.002 33.0164 101.863 34.1559 101.863 35.5617C101.863 36.9674 103.002 38.107 104.408 38.107Z" fill="white"/>
<path d="M203.414 100.979H98.5806C97.6889 100.977 96.8345 100.622 96.204 99.9912C95.5735 99.3607 95.2182 98.5062 95.2158 97.6146V42.6799H206.779V97.6146C206.777 98.5062 206.421 99.3607 205.791 99.9912C205.16 100.622 204.306 100.977 203.414 100.979Z" fill="#F5F5F5"/>
<path d="M80.2505 50.5632C80.2529 49.6716 80.6082 48.8172 81.2387 48.1867C81.8692 47.5562 82.7236 47.2009 83.6152 47.1985H188.449C189.341 47.2009 190.195 47.5562 190.825 48.1867C191.456 48.8172 191.811 49.6716 191.814 50.5632V61.3945H80.2505V50.5632Z" fill="#F0F0F0"/>
<path d="M107.457 56.844C108.863 56.844 110.003 55.7045 110.003 54.2987C110.003 52.893 108.863 51.7534 107.457 51.7534C106.052 51.7534 104.912 52.893 104.912 54.2987C104.912 55.7045 106.052 56.844 107.457 56.844Z" fill="#E6E6E6"/>
<path d="M98.4384 56.844C99.8441 56.844 100.984 55.7045 100.984 54.2987C100.984 52.893 99.8441 51.7534 98.4384 51.7534C97.0326 51.7534 95.8931 52.893 95.8931 54.2987C95.8931 55.7045 97.0326 56.844 98.4384 56.844Z" fill="#E6E6E6"/>
<path d="M89.4247 56.844C90.8304 56.844 91.97 55.7045 91.97 54.2987C91.97 52.893 90.8304 51.7534 89.4247 51.7534C88.019 51.7534 86.8794 52.893 86.8794 54.2987C86.8794 55.7045 88.019 56.844 89.4247 56.844Z" fill="#E6E6E6"/>
<path d="M188.43 119.716H83.5967C82.705 119.714 81.8506 119.359 81.2201 118.728C80.5896 118.098 80.2343 117.243 80.2319 116.352V61.417H191.795V116.352C191.793 117.243 191.437 118.098 190.807 118.728C190.176 119.359 189.322 119.714 188.43 119.716Z" fill="#FAFAFA"/>
<path d="M65.2671 69.3003C65.2695 68.4087 65.6248 67.5542 66.2553 66.9237C66.8858 66.2932 67.7402 65.938 68.6318 65.9355H173.466C174.357 65.938 175.212 66.2932 175.842 66.9237C176.473 67.5542 176.828 68.4087 176.83 69.3003V80.1316H65.2671V69.3003Z" fill="#FAFAFA"/>
<path d="M92.473 75.5816C93.8788 75.5816 95.0183 74.442 95.0183 73.0363C95.0183 71.6305 93.8788 70.491 92.473 70.491C91.0673 70.491 89.9277 71.6305 89.9277 73.0363C89.9277 74.442 91.0673 75.5816 92.473 75.5816Z" fill="#F0F0F0"/>
<path d="M83.455 75.5816C84.8607 75.5816 86.0003 74.442 86.0003 73.0363C86.0003 71.6305 84.8607 70.491 83.455 70.491C82.0492 70.491 80.9097 71.6305 80.9097 73.0363C80.9097 74.442 82.0492 75.5816 83.455 75.5816Z" fill="#F0F0F0"/>
<path d="M74.4413 75.5816C75.847 75.5816 76.9866 74.442 76.9866 73.0363C76.9866 71.6305 75.847 70.491 74.4413 70.491C73.0356 70.491 71.896 71.6305 71.896 73.0363C71.896 74.442 73.0356 75.5816 74.4413 75.5816Z" fill="#F0F0F0"/>
<path d="M173.447 138.454H68.6138C67.7221 138.451 66.8677 138.096 66.2372 137.466C65.6067 136.835 65.2514 135.981 65.249 135.089V80.1543H176.812V135.089C176.81 135.981 176.454 136.835 175.824 137.466C175.194 138.096 174.339 138.451 173.447 138.454Z" fill="#E6E6E6"/>
<path d="M103.804 166.15C152.825 166.15 192.564 163.83 192.564 160.968C192.564 158.106 152.825 155.786 103.804 155.786C54.7825 155.786 15.043 158.106 15.043 160.968C15.043 163.83 54.7825 166.15 103.804 166.15Z" fill="#F5F5F5"/>
<path d="M76.867 8.18555H72.8247V8.64334H76.867V8.18555Z" fill="#415DA1"/>
<path d="M68.0228 8.18555H58.1025V8.64334H68.0228V8.18555Z" fill="#415DA1"/>
<path d="M30.7088 9.76489H176.899C178.356 9.76489 179.753 10.3437 180.784 11.3739C181.814 12.4041 182.393 13.8014 182.393 15.2584V141.503H25.2153V15.2584C25.2153 13.8014 25.7941 12.4041 26.8243 11.3739C27.8546 10.3437 29.2518 9.76489 30.7088 9.76489Z" fill="#415DA1"/>
<path opacity="0.8" d="M182.388 18.0281H25.2153V139.37H182.388V18.0281Z" fill="white"/>
<path opacity="0.4" d="M182.388 18.0281H25.2153V44.7034H182.388V18.0281Z" fill="#415DA1"/>
<path opacity="0.4" d="M179.145 20.5779H172.585V27.138H179.145V20.5779Z" fill="#415DA1"/>
<path opacity="0.4" d="M169.414 20.5779H162.854V27.138H169.414V20.5779Z" fill="#415DA1"/>
<path opacity="0.4" d="M159.68 20.5779H153.12V27.138H159.68V20.5779Z" fill="#415DA1"/>
<path opacity="0.4" d="M54.9537 134.993H48.3936V135.653H54.9537V134.993Z" fill="#415DA1"/>
<path opacity="0.4" d="M45.2203 134.993H38.6602V135.653H45.2203V134.993Z" fill="#415DA1"/>
<path opacity="0.4" d="M35.4878 134.993H28.9277V135.653H35.4878V134.993Z" fill="#415DA1"/>
<path d="M88.097 33.2268H86.0964L85.8172 34.1698H84.0181L86.1605 28.4612H88.0878L90.2303 34.1698H88.3991L88.097 33.2268ZM87.7307 31.9907L87.1036 29.9398L86.4764 31.9907H87.7307Z" fill="white"/>
<path d="M90.6914 28.4609H92.2937V30.4386C92.4445 30.278 92.6268 30.1502 92.8293 30.0632C93.0419 29.9788 93.2689 29.9368 93.4977 29.9396C93.733 29.9342 93.9668 29.9801 94.1826 30.0742C94.3984 30.1682 94.5912 30.3082 94.7474 30.4844C95.1032 30.922 95.2798 31.4782 95.2418 32.0409C95.251 32.4504 95.1746 32.8573 95.0175 33.2357C94.8944 33.5576 94.6755 33.834 94.3903 34.0277C94.1271 34.1974 93.82 34.2865 93.5068 34.284C93.2413 34.287 92.979 34.2257 92.7423 34.1055C92.5198 33.9659 92.3269 33.7839 92.1746 33.5699V34.1833H90.6914V28.4609ZM92.2799 32.0912C92.2569 32.3631 92.3281 32.6346 92.4814 32.8603C92.5415 32.9373 92.6187 32.9993 92.7069 33.0414C92.7951 33.0835 92.8918 33.1045 92.9895 33.1029C93.0789 33.1008 93.1667 33.0783 93.246 33.037C93.3254 32.9957 93.3942 32.9369 93.4473 32.8649C93.5971 32.6294 93.6647 32.3509 93.6396 32.0729C93.6594 31.8191 93.5933 31.5659 93.4519 31.3542C93.3988 31.2828 93.3298 31.225 93.2502 31.1852C93.1707 31.1454 93.083 31.1249 92.9941 31.1253C92.8939 31.1217 92.7943 31.1413 92.703 31.1826C92.6116 31.2239 92.5311 31.2857 92.4676 31.3633C92.3211 31.5762 92.2546 31.834 92.2799 32.0912Z" fill="white"/>
<path d="M95.8056 32.1139C95.7968 31.8233 95.8493 31.534 95.9597 31.2651C96.0702 30.9961 96.236 30.7534 96.4465 30.5528C96.6797 30.3421 96.9522 30.1795 97.2484 30.0742C97.5445 29.9689 97.8585 29.9231 98.1724 29.9394C98.5185 29.9151 98.8656 29.9673 99.1892 30.0923C99.5128 30.2173 99.8049 30.4121 100.045 30.6627C100.396 31.0883 100.578 31.6286 100.556 32.1801C100.534 32.7317 100.31 33.2557 99.9257 33.6521C99.688 33.8641 99.4107 34.027 99.1098 34.1315C98.809 34.236 98.4904 34.28 98.1724 34.2609C97.5929 34.287 97.0226 34.1088 96.561 33.7574C96.317 33.5601 96.1219 33.3091 95.9909 33.0241C95.8599 32.739 95.7965 32.4275 95.8056 32.1139ZM97.3942 32.1139C97.3724 32.4033 97.4517 32.6913 97.6185 32.9288C97.6872 33.0114 97.7733 33.0779 97.8706 33.1235C97.9679 33.1691 98.0741 33.1928 98.1816 33.1928C98.289 33.1928 98.3952 33.1691 98.4925 33.1235C98.5898 33.0779 98.6759 33.0114 98.7446 32.9288C98.9122 32.6832 98.9898 32.3872 98.9644 32.091C98.9962 31.8062 98.9265 31.5192 98.7675 31.2807C98.7024 31.1974 98.619 31.1301 98.5237 31.0841C98.4285 31.038 98.324 31.0145 98.2182 31.0152C98.1085 31.0132 97.9998 31.0366 97.9005 31.0834C97.8013 31.1303 97.7142 31.1993 97.646 31.2853C97.464 31.5199 97.3744 31.8131 97.3942 32.1093V32.1139Z" fill="white"/>
<path d="M105.675 34.1697H104.196V33.4968C104.015 33.7367 103.788 33.9376 103.528 34.0873C103.269 34.2102 102.985 34.2699 102.699 34.2613C102.51 34.272 102.321 34.243 102.145 34.1759C101.968 34.1089 101.808 34.0054 101.673 33.8722C101.399 33.5318 101.267 33.0991 101.303 32.6636V30.0359H102.887V32.3248C102.868 32.5204 102.918 32.7165 103.029 32.8788C103.08 32.9347 103.143 32.9785 103.214 33.007C103.284 33.0355 103.36 33.048 103.436 33.0436C103.524 33.0446 103.611 33.0254 103.691 32.9873C103.77 32.9491 103.84 32.8932 103.894 32.8238C104.04 32.5904 104.104 32.315 104.077 32.041V30.0359H105.661L105.675 34.1697Z" fill="white"/>
<path d="M108.549 28.4607V30.0355H109.419V31.1937H108.549V32.654C108.538 32.7724 108.555 32.8917 108.6 33.002C108.628 33.0476 108.668 33.0843 108.715 33.1078C108.763 33.1314 108.817 33.1407 108.87 33.1347C109.037 33.1258 109.202 33.0919 109.36 33.034L109.479 34.1281C109.118 34.2106 108.75 34.2535 108.38 34.2563C108.082 34.2751 107.784 34.2234 107.51 34.1052C107.323 34.0056 107.175 33.8438 107.094 33.6474C106.987 33.3277 106.942 32.9906 106.961 32.654V31.1937H106.375V30.0355H106.961V29.2756L108.549 28.4607Z" fill="white"/>
<path d="M116.653 28.4609H118.411V31.8623C118.414 32.1863 118.361 32.5083 118.255 32.8145C118.153 33.1113 117.984 33.3807 117.761 33.6019C117.561 33.8026 117.321 33.9586 117.056 34.0597C116.659 34.1967 116.24 34.2618 115.82 34.252C115.514 34.2513 115.208 34.2314 114.904 34.1925C114.62 34.1668 114.342 34.0892 114.085 33.9636C113.852 33.8394 113.645 33.6715 113.476 33.4692C113.306 33.2798 113.178 33.0568 113.101 32.8145C113.001 32.502 112.947 32.1766 112.94 31.8486V28.4609H114.698V31.9401C114.691 32.0731 114.71 32.2062 114.754 32.3319C114.798 32.4576 114.866 32.5734 114.955 32.6726C115.156 32.8397 115.409 32.9312 115.671 32.9312C115.933 32.9312 116.186 32.8397 116.388 32.6726C116.479 32.5738 116.549 32.4575 116.594 32.3308C116.638 32.2041 116.657 32.0697 116.649 31.9356L116.653 28.4609Z" fill="white"/>
<path d="M119.193 33.0207L120.768 32.8742C120.814 33.0322 120.908 33.1716 121.038 33.2725C121.175 33.3571 121.335 33.3985 121.496 33.3915C121.671 33.4047 121.845 33.3578 121.99 33.2588C122.032 33.2315 122.067 33.1942 122.091 33.1502C122.115 33.1063 122.128 33.057 122.128 33.007C122.128 32.95 122.11 32.8944 122.079 32.8472C122.047 32.7999 122.002 32.7632 121.949 32.7415C121.729 32.6606 121.5 32.6053 121.267 32.5767C120.879 32.5205 120.496 32.4317 120.123 32.3111C119.906 32.2277 119.718 32.083 119.582 31.8946C119.433 31.7059 119.354 31.4713 119.358 31.2308C119.355 30.9755 119.439 30.7268 119.596 30.5258C119.767 30.3142 119.994 30.1554 120.251 30.068C120.613 29.9593 120.99 29.9099 121.368 29.9215C121.736 29.9062 122.105 29.9447 122.462 30.0359C122.683 30.1026 122.884 30.222 123.048 30.3839C123.221 30.5707 123.355 30.7901 123.442 31.0293L121.936 31.1758C121.909 31.0583 121.84 30.9543 121.743 30.8828C121.607 30.7961 121.447 30.753 121.285 30.7592C121.149 30.7482 121.012 30.7819 120.896 30.8554C120.859 30.8809 120.828 30.915 120.807 30.9548C120.785 30.9946 120.774 31.039 120.773 31.0843C120.772 31.1337 120.787 31.1822 120.815 31.2231C120.843 31.264 120.882 31.2954 120.928 31.3132C121.146 31.3933 121.374 31.4411 121.606 31.4551C122.007 31.4868 122.402 31.5699 122.782 31.7023C123.019 31.7956 123.224 31.9544 123.373 32.1601C123.505 32.3511 123.575 32.5779 123.574 32.8101C123.57 33.0578 123.496 33.2992 123.359 33.506C123.192 33.7501 122.954 33.937 122.677 34.0416C122.272 34.1913 121.841 34.2598 121.409 34.243C120.863 34.2896 120.314 34.1834 119.825 33.9363C119.665 33.8329 119.526 33.6988 119.418 33.5417C119.309 33.3845 119.233 33.2075 119.193 33.0207Z" fill="white"/>
<path d="M57.6497 96.3648C70.2912 96.3648 80.5392 86.1169 80.5392 73.4754C80.5392 60.8339 70.2912 50.5859 57.6497 50.5859C45.0082 50.5859 34.7603 60.8339 34.7603 73.4754C34.7603 86.1169 45.0082 96.3648 57.6497 96.3648Z" fill="#415DA1"/>
<path d="M72.9862 88.8105C81.4549 80.3418 81.4549 66.6113 72.9862 58.1426C64.5175 49.6739 50.787 49.6739 42.3183 58.1426C33.8496 66.6113 33.8496 80.3418 42.3183 88.8105C50.787 97.2792 64.5175 97.2792 72.9862 88.8105Z" fill="white"/>
<mask id="mask0_108_869" style="mask-type:luminance" maskUnits="userSpaceOnUse" x="35" y="51" width="45" height="45">
<path d="M72.9862 88.8105C81.4549 80.3418 81.4549 66.6113 72.9862 58.1426C64.5175 49.6739 50.787 49.6739 42.3183 58.1426C33.8496 66.6113 33.8496 80.3418 42.3183 88.8105C50.787 97.2792 64.5175 97.2792 72.9862 88.8105Z" fill="white"/>
</mask>
<g mask="url(#mask0_108_869)">
<path d="M58.7568 77.9758L60.588 74.1669C60.588 74.1669 70.1466 77.1884 71.5749 77.8888C71.5383 75.4945 72.756 71.0219 72.8888 68.5682C73.2504 68.2248 74.1248 67.355 74.578 67.3871C75.9514 70.5916 75.6538 81.5786 72.9529 81.78C68.6359 82.0959 58.7568 77.9758 58.7568 77.9758Z" fill="#B55B52"/>
<path d="M57.5671 77.4037C58.6703 79.9902 67.73 82.2928 67.73 82.2928L69.5611 76.7261C69.5611 76.7261 66.1094 74.1076 62.5249 73.2607C58.858 72.3863 56.3493 74.5654 57.5671 77.4037Z" fill="#415DA1"/>
<path opacity="0.2" d="M57.7275 77.7061C58.8033 79.3313 62.8044 80.8054 65.4092 81.6248C63.6742 78.2509 61.3349 76.3923 57.7275 77.7061Z" fill="#415DA1"/>
<path d="M72.8803 69.0721L71.4199 67.2043L74.1209 65.6936C74.653 66.499 74.9261 67.4478 74.9037 68.4129L72.8803 69.0721Z" fill="#B55B52"/>
<path d="M71.0215 64.613L73.6538 64.1873L74.1207 65.6934L71.4198 67.2041L71.0215 64.613Z" fill="#B55B52"/>
<path d="M62.7449 73.4435C62.7449 73.4435 66.4346 82.3292 63.5414 98.8737H49.1211C48.9517 96.4612 50.1831 84.6823 47.5737 73.2925C49.3077 72.9575 51.0617 72.7357 52.8246 72.6287C55.0522 72.5004 57.2853 72.5004 59.5129 72.6287C61.8476 72.8438 62.7449 73.4435 62.7449 73.4435Z" fill="#415DA1"/>
<path opacity="0.2" d="M51.0576 76.1034C51.3688 77.9757 50.8882 82.4575 49.2264 87.6397C49.1442 83.2029 48.6724 78.782 47.8164 74.4279V74.405C48.8693 74.3134 50.7646 74.3501 51.0576 76.1034Z" fill="#415DA1"/>
<path d="M53.543 66.3713C54.0007 68.5275 54.2937 71.1919 52.8242 72.6293C52.8242 72.6293 53.7398 74.813 57.7409 74.813C61.4032 74.813 59.5125 72.6293 59.5125 72.6293C57.1 72.0571 57.1503 69.086 57.5303 67.4151L53.543 66.3713Z" fill="#B55B52"/>
<path d="M57.9287 74.6383L58.7985 75.5951C58.8283 75.629 58.849 75.6699 58.8586 75.7139C58.8682 75.758 58.8665 75.8037 58.8535 75.8469L58.5742 76.6938C58.5585 76.7403 58.5292 76.7809 58.4899 76.8103C58.4507 76.8397 58.4035 76.8566 58.3545 76.8586L57.4389 76.9044C57.3948 76.9062 57.351 76.8967 57.3117 76.8766C57.2724 76.8566 57.239 76.8267 57.2146 76.79L56.6515 75.9705C56.6185 75.9262 56.6006 75.8724 56.6006 75.8172C56.6006 75.7619 56.6185 75.7081 56.6515 75.6638L57.5671 74.6383C57.5906 74.6141 57.6187 74.5949 57.6497 74.5817C57.6808 74.5685 57.7142 74.5618 57.7479 74.5618C57.7817 74.5618 57.815 74.5685 57.8461 74.5817C57.8772 74.5949 57.9053 74.6141 57.9287 74.6383Z" fill="white"/>
<path d="M57.7413 74.4282C57.2962 75.1711 57.0502 76.0162 57.0271 76.8819C57.0271 76.8819 51.9914 75.1149 52.1425 72.5238C52.1425 72.5238 52.8429 72.1026 53.287 71.7593C53.287 71.7593 53.4976 73.3982 57.7413 74.4282Z" fill="#263238"/>
<path d="M57.7417 74.4283C58.2178 75.1243 58.5666 75.8993 58.7717 76.7172C58.7717 76.7172 61.0057 75.1791 60.2595 72.5971C59.8409 72.4268 59.4092 72.2905 58.9686 72.1897C58.9686 72.1897 59.3073 73.856 57.7417 74.4283Z" fill="#263238"/>
<path d="M58.1479 76.7263C58.1479 76.7263 59.5808 87.2554 59.6128 89.0866C59.5935 90.8185 59.3205 92.5382 58.8025 94.1909C58.8025 94.1909 57.8183 92.3323 57.6489 89.0042C57.4795 85.676 57.6855 78.5849 57.6123 76.7217L58.1479 76.7263Z" fill="white"/>
<path opacity="0.2" d="M57.5306 67.4197C57.236 68.5827 57.2708 69.8049 57.6313 70.9492C57.2589 70.8933 56.8966 70.7838 56.5555 70.6242C55.1822 69.9833 54.4909 68.9807 53.763 67.4883C53.6989 67.1084 53.6257 66.733 53.5479 66.3713L57.5306 67.4197Z" fill="#415DA1"/>
<path d="M61.3256 65.9085C61.1634 66.2295 60.9378 66.5143 60.6624 66.7457C60.387 66.977 60.0676 67.1501 59.7234 67.2544C58.8078 67.5291 58.3088 66.6913 58.5377 65.7986C58.7483 64.9929 59.4533 63.8805 60.4146 63.9995C60.621 64.0307 60.8166 64.112 60.9843 64.2362C61.152 64.3605 61.2867 64.524 61.3765 64.7123C61.4664 64.9007 61.5088 65.1082 61.4999 65.3168C61.491 65.5253 61.4312 65.7285 61.3256 65.9085Z" fill="#B55B52"/>
<path opacity="0.2" d="M61.3256 65.9085C61.1634 66.2295 60.9378 66.5143 60.6624 66.7457C60.387 66.977 60.0676 67.1501 59.7234 67.2544C58.8078 67.5291 58.3088 66.6913 58.5377 65.7986C58.7483 64.9929 59.4533 63.8805 60.4146 63.9995C60.621 64.0307 60.8166 64.112 60.9843 64.2362C61.152 64.3605 61.2867 64.524 61.3765 64.7123C61.4664 64.9007 61.5088 65.1082 61.4999 65.3168C61.491 65.5253 61.4312 65.7285 61.3256 65.9085Z" fill="#415DA1"/>
<path d="M58.6706 64.0452C59.5862 64.883 61.2571 60.2868 59.3847 59.0324C57.5124 57.7781 56.8577 59.4902 56.8898 60.5477C56.9218 61.6052 57.2881 62.8046 58.6706 64.0452Z" fill="#263238"/>
<path d="M52.4166 63.2673C52.8469 66.1834 52.9522 67.9093 54.5408 69.3147C56.9258 71.4251 60.373 69.8411 60.8079 66.8746C61.2016 64.2012 60.4325 59.8796 57.5072 58.9091C56.867 58.6903 56.1808 58.6421 55.5163 58.7695C54.8518 58.8968 54.232 59.1952 53.718 59.6352C53.2041 60.0753 52.8137 60.6417 52.5855 61.2786C52.3573 61.9155 52.2991 62.601 52.4166 63.2673Z" fill="#B55B52"/>
<path d="M52.2331 65.744C52.7367 66.0645 53.4279 66.948 54.4671 65.3915C54.4671 64.9887 53.4462 64.3112 53.3684 63.359C53.2769 62.2511 53.0342 61.0929 52.137 60.6809C50.0906 59.7424 49.7153 61.5232 49.9167 62.5761C50.1181 63.6291 50.672 64.7415 52.2331 65.744Z" fill="#263238"/>
<path d="M51.9595 61.706C56.7891 60.9506 59.6412 60.7904 61.0924 58.9592C62.5436 57.1281 60.3141 54.9124 57.8878 54.656C57.7139 55.5991 55.2556 58.0803 51.4788 59.1515C51.2687 59.2103 51.0799 59.3281 50.9348 59.491C50.7897 59.6539 50.6943 59.855 50.6601 60.0704C50.6259 60.2859 50.6542 60.5066 50.7417 60.7065C50.8292 60.9063 50.9722 61.0768 51.1538 61.1978C51.6161 61.4954 51.9595 61.706 51.9595 61.706Z" fill="#263238"/>
<path d="M51.3963 66.5858C51.8376 67.182 52.495 67.5814 53.2274 67.6982C54.1842 67.8447 54.5276 66.9474 54.143 66.096C53.7997 65.3315 52.8887 64.3289 51.9822 64.5761C51.0758 64.8233 50.8607 65.8442 51.3963 66.5858Z" fill="#B55B52"/>
<path d="M56.8624 63.7845C56.8624 64.0225 57.0272 64.2102 57.1783 64.1965C57.3294 64.1827 57.4392 63.9859 57.4209 63.7387C57.4026 63.4915 57.2607 63.3129 57.105 63.3267C56.9494 63.3404 56.8441 63.551 56.8624 63.7845Z" fill="#263238"/>
<path d="M59.5171 63.6105C59.54 63.8485 59.6819 64.0316 59.833 64.0225C59.9841 64.0133 60.0939 63.8073 60.0756 63.5647C60.0573 63.3221 59.9108 63.1435 59.7598 63.1527C59.6087 63.1618 59.4988 63.3724 59.5171 63.6105Z" fill="#263238"/>
<path d="M58.6846 63.7844C59.0281 64.4943 59.4653 65.1549 59.9847 65.7483C59.8338 65.8754 59.6564 65.9671 59.4656 66.017C59.2748 66.0669 59.0752 66.0737 58.8814 66.0367L58.6846 63.7844Z" fill="#A02724"/>
<path d="M58.2538 66.7418C58.2712 66.7395 58.2871 66.7306 58.2981 66.717C58.3092 66.7034 58.3146 66.686 58.3133 66.6685C58.3121 66.6499 58.3039 66.6324 58.2903 66.6197C58.2767 66.6069 58.2587 66.5998 58.2401 66.5999C57.9458 66.6253 57.6496 66.5813 57.3753 66.4716C57.101 66.3619 56.8563 66.1895 56.6607 65.9681C56.6479 65.9555 56.6306 65.9485 56.6126 65.9485C56.5946 65.9485 56.5774 65.9555 56.5646 65.9681C56.552 65.981 56.5449 65.9982 56.5449 66.0162C56.5449 66.0342 56.552 66.0514 56.5646 66.0642C56.773 66.3021 57.0346 66.4875 57.3281 66.6052C57.6216 66.7229 57.9388 66.7697 58.2538 66.7418Z" fill="#263238"/>
<path d="M55.9877 62.9738C56.0094 62.9733 56.0305 62.9671 56.0489 62.9558C56.0674 62.9446 56.0826 62.9287 56.093 62.9097C56.1808 62.7607 56.3032 62.6351 56.4498 62.5434C56.5964 62.4518 56.763 62.3969 56.9354 62.3833C56.9536 62.3839 56.9717 62.3808 56.9887 62.3741C57.0056 62.3674 57.021 62.3573 57.0339 62.3445C57.0468 62.3316 57.0569 62.3162 57.0635 62.2992C57.0702 62.2823 57.0733 62.2641 57.0727 62.2459C57.0727 62.2083 57.0578 62.1722 57.0311 62.1456C57.0045 62.119 56.9684 62.104 56.9308 62.104C56.7122 62.1167 56.5001 62.183 56.3132 62.2972C56.1264 62.4114 55.9706 62.5699 55.8596 62.7586C55.8496 62.7742 55.8429 62.7916 55.8398 62.8097C55.8367 62.8279 55.8374 62.8465 55.8416 62.8645C55.8459 62.8824 55.8537 62.8993 55.8647 62.9142C55.8756 62.929 55.8895 62.9415 55.9053 62.9509C55.9168 62.96 55.9301 62.9668 55.9442 62.9707C55.9584 62.9746 55.9732 62.9757 55.9877 62.9738Z" fill="#263238"/>
<path d="M60.6299 62.5714C60.648 62.5753 60.6667 62.5753 60.6848 62.5714C60.7157 62.5501 60.7369 62.5174 60.7438 62.4805C60.7507 62.4436 60.7426 62.4055 60.7215 62.3745C60.6029 62.1869 60.4415 62.0301 60.2505 61.917C60.0594 61.804 59.8443 61.738 59.6228 61.7244C59.6046 61.7238 59.5864 61.7269 59.5695 61.7336C59.5525 61.7403 59.5371 61.7504 59.5242 61.7633C59.5114 61.7761 59.5013 61.7915 59.4946 61.8085C59.4879 61.8254 59.4848 61.8436 59.4854 61.8618C59.4866 61.8991 59.5019 61.9345 59.5283 61.9609C59.5546 61.9872 59.5901 62.0026 59.6273 62.0037C59.8029 62.0167 59.9729 62.0712 60.1233 62.1627C60.2738 62.2543 60.4003 62.3802 60.4926 62.5302C60.5097 62.5486 60.5315 62.5621 60.5557 62.5694C60.5798 62.5766 60.6054 62.5773 60.6299 62.5714Z" fill="#263238"/>
<path d="M45.9163 77.2019L49.6244 79.3764C49.6244 79.3764 44.9458 88.5551 45.4539 89.9651C46.1452 91.8878 47.1935 96.1086 48.4204 98.2053C48.3014 98.6631 47.6147 99.7801 47.2118 99.9861C44.2637 98.0084 41.0363 91.5307 41.0454 89.6812C41.0866 85.4787 45.9163 77.2019 45.9163 77.2019Z" fill="#B55B52"/>
<path d="M47.5736 73.2926C44.7994 73.7 41.8467 83.364 41.8467 83.364L48.4114 85.4606C49.5815 83.2655 50.5958 80.9908 51.4465 78.6533C52.6642 75.0826 50.5492 72.8577 47.5736 73.2926Z" fill="#415DA1"/>
</g>
<path d="M149.957 134.965C162.598 134.965 172.846 124.717 172.846 112.076C172.846 99.4345 162.598 89.1865 149.957 89.1865C137.315 89.1865 127.067 99.4345 127.067 112.076C127.067 124.717 137.315 134.965 149.957 134.965Z" fill="#415DA1"/>
<path d="M149.957 133.761C161.933 133.761 171.642 124.052 171.642 112.076C171.642 100.099 161.933 90.3904 149.957 90.3904C137.98 90.3904 128.271 100.099 128.271 112.076C128.271 124.052 137.98 133.761 149.957 133.761Z" fill="white"/>
<mask id="mask1_108_869" style="mask-type:luminance" maskUnits="userSpaceOnUse" x="128" y="90" width="44" height="44">
<path d="M149.957 133.761C161.933 133.761 171.642 124.052 171.642 112.076C171.642 100.099 161.933 90.3904 149.957 90.3904C137.98 90.3904 128.271 100.099 128.271 112.076C128.271 124.052 137.98 133.761 149.957 133.761Z" fill="white"/>
</mask>
<g mask="url(#mask1_108_869)">
<path d="M148.959 95.5955C145.704 95.3025 143.676 100.311 144.353 107.956C148.474 110.3 153.193 107.983 156.97 109.842C160.463 104.495 159.534 92.4459 148.959 95.5955Z" fill="#263238"/>
<path d="M143.877 117.725C143.409 119.462 142.75 121.141 141.913 122.733C141.461 123.604 140.898 124.411 140.238 125.137C140.044 125.345 139.834 125.538 139.611 125.713C139.26 126.016 138.84 126.228 138.388 126.331C138.04 126.4 137.681 126.385 137.34 126.286C137.038 126.191 136.759 126.035 136.521 125.828C136.222 125.558 135.979 125.231 135.807 124.867C135.58 124.382 135.412 123.872 135.308 123.347C135.209 122.893 135.136 122.435 135.088 121.973C134.987 121.081 134.941 120.211 134.928 119.341C134.902 117.621 134.98 115.901 135.161 114.191L136.846 114.218C136.992 115.866 137.162 117.537 137.377 119.158C137.491 119.968 137.619 120.774 137.784 121.538C137.867 121.923 137.963 122.294 138.063 122.642C138.146 122.937 138.264 123.222 138.416 123.489C138.466 123.576 138.53 123.621 138.453 123.534C138.376 123.463 138.283 123.411 138.182 123.383C138.045 123.339 137.899 123.329 137.757 123.356C137.551 123.392 137.537 123.452 137.619 123.356C137.717 123.26 137.807 123.158 137.889 123.049C138.307 122.478 138.661 121.865 138.947 121.218C139.282 120.513 139.579 119.79 139.835 119.053C140.11 118.32 140.366 117.528 140.59 116.814L143.877 117.725Z" fill="#FFB573"/>
<path d="M141.615 113.316C140.242 113.669 139.28 119.318 139.28 119.318L144.531 122.889C144.531 122.889 146.692 116.191 145.634 114.68C144.577 113.17 143.629 112.808 141.615 113.316Z" fill="#263238"/>
<path opacity="0.2" d="M141.74 114.58L140.682 120.275L142.811 121.717L141.74 114.58Z" fill="#415DA1"/>
<path d="M136.919 114.69L137.615 111.174L134.822 111.989C134.822 111.989 134.548 114.415 135.674 115.221L136.919 114.69Z" fill="#FFB573"/>
<path d="M137.336 109.635L135.028 110.592L134.822 111.989L137.615 111.178L137.336 109.635Z" fill="#FFB573"/>
<path d="M141.616 113.317C141.616 113.317 140.027 113.875 143.209 133.427H156.737C156.512 127.934 156.503 124.523 159.135 113.221C157.241 112.829 155.321 112.576 153.39 112.465C151.345 112.319 149.292 112.319 147.247 112.465C144.61 112.703 141.616 113.317 141.616 113.317Z" fill="#263238"/>
<path opacity="0.2" d="M158.023 117.693C156.796 118 155.661 119.337 155.798 121.813C155.874 122.933 156.266 124.008 156.929 124.912C157.144 123.022 157.506 120.82 158.083 118.004L158.023 117.693Z" fill="#415DA1"/>
<path d="M147.961 116.796C147.961 116.796 150.177 118.627 150.177 120.563C152.008 119.217 154.503 115.528 154.755 113.188C154.763 113.094 154.752 112.998 154.722 112.908C154.693 112.818 154.645 112.734 154.583 112.662C154.521 112.591 154.445 112.532 154.359 112.49C154.274 112.449 154.181 112.425 154.086 112.419C153.92 112.412 153.755 112.392 153.592 112.36C153.523 112.345 153.452 112.345 153.384 112.362C153.315 112.379 153.252 112.411 153.198 112.456L147.961 116.796Z" fill="#FAFAFA"/>
<path d="M147.96 116.796C147.357 117.243 146.85 117.807 146.468 118.455C146.087 119.102 145.839 119.819 145.74 120.563C143.872 119.19 144.646 114.969 145.685 112.973C145.766 112.817 145.885 112.683 146.03 112.583C146.176 112.484 146.343 112.421 146.518 112.401C146.788 112.373 146.999 112.337 147.136 112.309C147.161 112.304 147.186 112.304 147.211 112.309C147.236 112.314 147.259 112.324 147.28 112.339C147.301 112.353 147.318 112.372 147.331 112.394C147.344 112.416 147.352 112.44 147.356 112.465L147.96 116.796Z" fill="#FAFAFA"/>
<path d="M152.786 105.548C152.401 107.521 152.012 111.147 153.395 112.465C151.894 114.259 150.048 115.732 147.965 116.796C145.219 114.608 147.251 112.465 147.251 112.465C149.458 111.939 149.398 110.305 149.014 108.766L152.786 105.548Z" fill="#FFB573"/>
<path opacity="0.2" d="M151.244 106.862L149.014 108.766C149.107 109.123 149.17 109.488 149.202 109.856C150.044 109.732 151.367 109.018 151.55 108.098C151.553 107.666 151.448 107.241 151.244 106.862Z" fill="#415DA1"/>
<path d="M156.096 102.371C155.18 105.548 154.864 106.912 152.869 108.203C149.87 110.148 146.167 108.331 146.112 104.943C146.061 101.894 147.567 97.2112 151.005 96.6299C151.763 96.4982 152.541 96.5624 153.267 96.8163C153.993 97.0702 154.641 97.5055 155.151 98.0807C155.661 98.6559 156.016 99.352 156.181 100.103C156.347 100.854 156.317 101.634 156.096 102.371Z" fill="#FFB573"/>
<path d="M153.655 99.4092C154.214 102.577 154.429 103.809 155.551 104.628C156.672 105.447 157.716 101.68 156.887 100.238C156.059 98.7957 153.655 99.4092 153.655 99.4092Z" fill="#263238"/>
<path d="M148.382 96.433C147.709 97.225 149.091 98.8959 150.433 99.4361C150.35 99.2629 150.29 99.0798 150.254 98.8913C151.224 99.5513 152.312 100.018 153.459 100.265C153.33 100.1 153.244 99.907 153.207 99.7016C153.207 99.5459 156.512 101.734 156.993 100.159C157.474 98.5846 155.835 96.52 153.331 95.8653C151.197 95.3297 149.21 95.4487 148.382 96.433Z" fill="#263238"/>
<path d="M150.767 102.082C150.712 102.348 150.524 102.54 150.35 102.49C150.177 102.439 150.09 102.206 150.149 101.945C150.209 101.684 150.392 101.487 150.566 101.537C150.74 101.588 150.827 101.821 150.767 102.082Z" fill="#263238"/>
<path d="M147.805 101.423C147.746 101.689 147.558 101.881 147.389 101.83C147.219 101.78 147.123 101.547 147.183 101.286C147.242 101.025 147.425 100.828 147.599 100.878C147.773 100.929 147.86 101.162 147.805 101.423Z" fill="#263238"/>
<path d="M147.673 100.91L147.083 100.59C147.083 100.59 147.293 101.153 147.673 100.91Z" fill="#263238"/>
<path d="M148.611 102.101C148.245 102.646 147.806 103.139 147.306 103.566C147.42 103.694 147.562 103.795 147.72 103.862C147.879 103.928 148.05 103.959 148.222 103.95L148.611 102.101Z" fill="#ED893E"/>
<path d="M149.404 105.296C149.271 105.286 149.139 105.267 149.01 105.237C148.99 105.232 148.972 105.22 148.961 105.203C148.95 105.186 148.946 105.165 148.95 105.145C148.952 105.135 148.957 105.125 148.963 105.116C148.969 105.107 148.977 105.1 148.986 105.095C148.995 105.089 149.005 105.085 149.015 105.084C149.026 105.082 149.036 105.083 149.046 105.085C149.371 105.165 149.709 105.166 150.034 105.091C150.36 105.015 150.663 104.864 150.919 104.651C150.934 104.636 150.955 104.627 150.976 104.627C150.997 104.627 151.018 104.636 151.033 104.651C151.047 104.666 151.054 104.685 151.054 104.705C151.054 104.726 151.047 104.745 151.033 104.76C150.81 104.953 150.552 105.099 150.272 105.191C149.992 105.283 149.697 105.319 149.404 105.296Z" fill="#263238"/>
<path d="M156.306 105.538C156.13 105.801 155.903 106.026 155.639 106.2C155.375 106.374 155.079 106.495 154.768 106.555C153.935 106.71 153.592 105.946 153.889 105.181C154.155 104.508 154.906 103.616 155.72 103.808C155.898 103.851 156.061 103.938 156.196 104.061C156.331 104.184 156.432 104.339 156.49 104.512C156.549 104.685 156.563 104.869 156.53 105.049C156.498 105.228 156.421 105.397 156.306 105.538Z" fill="#FFB573"/>
<path d="M152.223 101.51C152.19 101.506 152.159 101.492 152.135 101.469C152.111 101.445 152.095 101.415 152.09 101.382C152.012 101.136 151.883 100.91 151.713 100.716C151.543 100.522 151.335 100.365 151.101 100.256C151.079 100.249 151.059 100.238 151.042 100.223C151.025 100.207 151.011 100.189 151.002 100.168C150.992 100.147 150.988 100.124 150.988 100.102C150.988 100.079 150.993 100.056 151.002 100.035C151.012 100.015 151.026 99.9961 151.043 99.9811C151.061 99.9662 151.081 99.9551 151.103 99.9487C151.125 99.9422 151.148 99.9405 151.17 99.9437C151.193 99.9469 151.215 99.9549 151.234 99.9672C151.515 100.099 151.765 100.29 151.966 100.527C152.166 100.764 152.313 101.041 152.397 101.341C152.401 101.361 152.401 101.381 152.397 101.402C152.393 101.422 152.385 101.441 152.373 101.458C152.362 101.475 152.347 101.49 152.33 101.501C152.313 101.512 152.293 101.52 152.273 101.524L152.223 101.51Z" fill="#263238"/>
<path d="M147.22 99.3219C147.192 99.3246 147.164 99.3196 147.139 99.3075C147.114 99.2954 147.093 99.2766 147.078 99.2532C147.055 99.2179 147.047 99.1751 147.056 99.134C147.064 99.0929 147.089 99.0568 147.123 99.0335C147.329 98.8902 147.566 98.7987 147.815 98.7668C148.064 98.7349 148.316 98.7636 148.552 98.8503C148.571 98.8585 148.588 98.8702 148.602 98.885C148.617 98.8997 148.628 98.9171 148.636 98.9363C148.643 98.9554 148.647 98.9758 148.647 98.9964C148.647 99.0171 148.642 99.0374 148.634 99.0563C148.626 99.0753 148.614 99.0924 148.599 99.1068C148.585 99.1212 148.567 99.1326 148.548 99.1402C148.529 99.1479 148.509 99.1517 148.488 99.1514C148.467 99.1512 148.447 99.1469 148.428 99.1387C148.24 99.0755 148.04 99.0571 147.844 99.0849C147.647 99.1127 147.46 99.186 147.297 99.299C147.274 99.3133 147.247 99.3212 147.22 99.3219Z" fill="#263238"/>
<path d="M150.634 101.569L150.048 101.249C150.048 101.249 150.259 101.812 150.634 101.569Z" fill="#263238"/>
<path d="M156.942 132.63L157.285 133.843C157.336 133.935 157.221 134.031 157.066 134.031H143.14C143.016 134.031 142.915 133.972 142.911 133.894L142.787 132.685C142.787 132.603 142.883 132.53 143.016 132.53H156.722C156.764 132.526 156.807 132.534 156.845 132.551C156.884 132.569 156.917 132.596 156.942 132.63Z" fill="#415DA1"/>
<path opacity="0.2" d="M156.942 132.63L157.285 133.843C157.336 133.935 157.221 134.031 157.066 134.031H143.14C143.016 134.031 142.915 133.972 142.911 133.894L142.787 132.685C142.787 132.603 142.883 132.53 143.016 132.53H156.722C156.764 132.526 156.807 132.534 156.845 132.551C156.884 132.569 156.917 132.596 156.942 132.63Z" fill="#415DA1"/>
<path d="M155.075 134.164H155.442C155.515 134.164 155.57 134.127 155.565 134.082L155.391 132.507C155.391 132.461 155.323 132.424 155.249 132.424H154.883C154.81 132.424 154.755 132.461 154.76 132.507L154.934 134.082C154.92 134.127 154.984 134.164 155.075 134.164Z" fill="#415DA1"/>
<path opacity="0.4" d="M155.075 134.164H155.442C155.515 134.164 155.57 134.127 155.565 134.082L155.391 132.507C155.391 132.461 155.323 132.424 155.249 132.424H154.883C154.81 132.424 154.755 132.461 154.76 132.507L154.934 134.082C154.92 134.127 154.984 134.164 155.075 134.164Z" fill="#415DA1"/>
<path d="M144.17 134.164H144.536C144.609 134.164 144.669 134.128 144.664 134.082L144.49 132.507C144.49 132.461 144.422 132.425 144.349 132.425H143.982C143.909 132.425 143.854 132.461 143.859 132.507L144.028 134.082C144.033 134.128 144.088 134.164 144.17 134.164Z" fill="#415DA1"/>
<path opacity="0.4" d="M144.17 134.164H144.536C144.609 134.164 144.669 134.128 144.664 134.082L144.49 132.507C144.49 132.461 144.422 132.425 144.349 132.425H143.982C143.909 132.425 143.854 132.461 143.859 132.507L144.028 134.082C144.033 134.128 144.088 134.164 144.17 134.164Z" fill="#415DA1"/>
<path d="M149.582 134.164H149.948C150.021 134.164 150.076 134.127 150.072 134.082L149.902 132.507C149.902 132.461 149.834 132.424 149.76 132.424H149.394C149.321 132.424 149.261 132.461 149.266 132.507L149.44 134.082C149.454 134.127 149.518 134.164 149.582 134.164Z" fill="#415DA1"/>
<path opacity="0.4" d="M149.582 134.164H149.948C150.021 134.164 150.076 134.127 150.072 134.082L149.902 132.507C149.902 132.461 149.834 132.424 149.76 132.424H149.394C149.321 132.424 149.261 132.461 149.266 132.507L149.44 134.082C149.454 134.127 149.518 134.164 149.582 134.164Z" fill="#415DA1"/>
<path d="M160.715 117.235C160.866 118.375 160.985 119.524 161.122 120.664L161.47 124.102C161.594 125.246 161.681 126.391 161.781 127.544L161.942 129.247L161.978 129.678C161.978 129.723 161.978 129.902 162.001 130.025C162.008 130.158 162.008 130.291 162.001 130.424C161.946 130.916 161.79 131.391 161.543 131.82C161.145 132.481 160.619 133.057 159.996 133.514C159.473 133.907 158.919 134.258 158.339 134.562C157.256 135.12 156.131 135.591 154.974 135.972C152.736 136.727 150.439 137.295 148.107 137.671L147.732 136.023C148.799 135.675 149.888 135.313 150.936 134.91C151.985 134.507 153.047 134.104 154.059 133.647C155.055 133.208 156.021 132.705 156.952 132.14C157.378 131.879 157.783 131.585 158.165 131.262C158.461 131.019 158.708 130.722 158.893 130.387C158.932 130.313 158.955 130.232 158.961 130.149L158.884 129.604L158.641 127.892C158.481 126.748 158.302 125.603 158.183 124.468L157.748 121.035C157.625 119.89 157.478 118.746 157.373 117.601L160.715 117.235Z" fill="#FFB573"/>
<path d="M159.135 113.225C160.509 113.637 162.12 118.307 162.12 118.307L157.364 123.187C157.364 123.187 154.928 118.151 155.501 116.411C156.073 114.672 157.588 112.767 159.135 113.225Z" fill="#263238"/>
</g>
<path d="M147.976 71.2873H87.8682C87.3412 71.2873 86.8359 71.078 86.4633 70.7054C86.0907 70.3328 85.8813 69.8275 85.8813 69.3005C85.8813 68.7736 86.0907 68.2682 86.4633 67.8956C86.8359 67.523 87.3412 67.3137 87.8682 67.3137H147.976C148.502 67.3149 149.006 67.5248 149.378 67.8973C149.749 68.2697 149.958 68.7744 149.958 69.3005C149.959 69.5612 149.908 69.8195 149.809 70.0605C149.709 70.3015 149.563 70.5206 149.379 70.7051C149.195 70.8897 148.976 71.0361 148.735 71.136C148.495 71.2359 148.237 71.2873 147.976 71.2873Z" fill="white"/>
<path d="M134.018 79.6329H87.8682C87.3412 79.6329 86.8359 79.4235 86.4633 79.0509C86.0907 78.6783 85.8813 78.173 85.8813 77.6461C85.8813 77.3854 85.9328 77.1272 86.0327 76.8864C86.1326 76.6456 86.279 76.4269 86.4635 76.2428C86.6481 76.0587 86.8672 75.9127 87.1082 75.8134C87.3492 75.7141 87.6075 75.6632 87.8682 75.6638H134.018C134.279 75.6632 134.537 75.7141 134.778 75.8134C135.019 75.9127 135.238 76.0587 135.422 76.2428C135.607 76.4269 135.753 76.6456 135.853 76.8864C135.953 77.1272 136.005 77.3854 136.005 77.6461C136.005 78.173 135.795 78.6783 135.423 79.0509C135.05 79.4235 134.545 79.6329 134.018 79.6329Z" fill="white"/>
<path d="M96.8074 109.888H119.738C120.265 109.888 120.77 109.678 121.143 109.306C121.516 108.933 121.725 108.428 121.725 107.901C121.725 107.64 121.673 107.382 121.574 107.141C121.474 106.901 121.327 106.682 121.143 106.498C120.958 106.314 120.739 106.168 120.498 106.068C120.257 105.969 119.999 105.918 119.738 105.919H96.8074C96.2817 105.919 95.7775 106.128 95.4058 106.499C95.034 106.871 94.8252 107.375 94.8252 107.901C94.8246 108.162 94.8754 108.42 94.9748 108.661C95.0741 108.902 95.22 109.121 95.4042 109.306C95.5883 109.49 95.807 109.637 96.0478 109.736C96.2886 109.836 96.5467 109.888 96.8074 109.888Z" fill="white"/>
<path d="M71.3289 109.888H87.1501C87.4108 109.888 87.6689 109.837 87.9097 109.737C88.1505 109.637 88.3692 109.491 88.5534 109.306C88.7375 109.121 88.8834 108.902 88.9828 108.661C89.0821 108.42 89.1329 108.162 89.1323 107.901C89.1323 107.376 88.9235 106.872 88.5518 106.5C88.18 106.128 87.6758 105.919 87.1501 105.919H71.3289C70.8032 105.919 70.299 106.128 69.9273 106.5C69.5555 106.872 69.3467 107.376 69.3467 107.901C69.3461 108.162 69.3969 108.42 69.4963 108.661C69.5956 108.902 69.7415 109.121 69.9256 109.306C70.1098 109.491 70.3285 109.637 70.5693 109.737C70.8101 109.837 71.0682 109.888 71.3289 109.888Z" fill="white"/>
<path d="M59.6326 118.234H119.74C120.267 118.234 120.773 118.025 121.145 117.652C121.518 117.279 121.727 116.774 121.727 116.247C121.727 115.986 121.676 115.728 121.576 115.488C121.476 115.247 121.329 115.028 121.145 114.844C120.96 114.66 120.741 114.514 120.5 114.414C120.259 114.315 120.001 114.264 119.74 114.265H59.6326C59.1069 114.265 58.6027 114.474 58.231 114.845C57.8592 115.217 57.6504 115.721 57.6504 116.247C57.6498 116.508 57.7006 116.766 57.8 117.007C57.8993 117.248 58.0452 117.467 58.2294 117.652C58.4135 117.836 58.6322 117.983 58.873 118.083C59.1138 118.183 59.3719 118.234 59.6326 118.234Z" fill="white"/>
<path d="M35.0577 13.9083C35.0577 14.286 34.9456 14.6553 34.7357 14.9693C34.5257 15.2833 34.2273 15.528 33.8782 15.6724C33.5291 15.8167 33.145 15.8542 32.7746 15.7802C32.4042 15.7062 32.064 15.5239 31.7973 15.2565C31.5305 14.989 31.349 14.6485 31.2759 14.2779C31.2027 13.9073 31.2412 13.5233 31.3864 13.1745C31.5316 12.8258 31.777 12.528 32.0915 12.3188C32.406 12.1096 32.7755 11.9984 33.1533 11.9993C33.4038 11.9993 33.6518 12.0487 33.8831 12.1447C34.1145 12.2407 34.3246 12.3814 34.5015 12.5587C34.6784 12.736 34.8186 12.9465 34.9141 13.1781C35.0095 13.4096 35.0583 13.6578 35.0577 13.9083Z" fill="white"/>
<path d="M39.6404 15.817C40.6947 15.817 41.5494 14.9623 41.5494 13.908C41.5494 12.8537 40.6947 11.999 39.6404 11.999C38.5861 11.999 37.7314 12.8537 37.7314 13.908C37.7314 14.9623 38.5861 15.817 39.6404 15.817Z" fill="white"/>
<path d="M46.1272 15.8172C47.1815 15.8172 48.0362 14.9625 48.0362 13.9082C48.0362 12.8539 47.1815 11.9993 46.1272 11.9993C45.0729 11.9993 44.2183 12.8539 44.2183 13.9082C44.2183 14.9625 45.0729 15.8172 46.1272 15.8172Z" fill="white"/>
</svg>
