<svg width="273" height="64" viewBox="0 0 273 64" fill="none" xmlns="http://www.w3.org/2000/svg">
<path d="M28.4445 17.7778V35.5556L43.5556 44.5156L46.2933 39.9645L33.7778 32.5334V17.7778H28.4445ZM64 24.889V6.61449e-05L54.6133 9.38673C51.6521 6.40443 48.1287 4.03919 44.247 2.42795C40.3654 0.816713 36.2027 -0.0085087 32 6.61449e-05C25.671 6.61449e-05 19.4841 1.87683 14.2218 5.39304C8.95939 8.90924 4.85787 13.907 2.43587 19.7542C0.0138649 25.6014 -0.619841 32.0356 0.614885 38.243C1.84961 44.4503 4.89732 50.1522 9.37259 54.6275C13.8479 59.1028 19.5497 62.1505 25.7571 63.3852C31.9645 64.6199 38.3986 63.9862 44.2459 61.5642C50.0931 59.1422 55.0908 55.0407 58.607 49.7783C62.1232 44.5159 64 38.3291 64 32.0001H56.8889C56.8889 45.7245 45.7244 56.8889 32 56.8889C18.2756 56.8889 7.11112 45.7245 7.11112 32.0001C7.11112 18.2756 18.2756 7.11118 32 7.11118C38.8622 7.11118 45.0845 9.92006 49.6 14.4001L39.1111 24.889H64Z" fill="#41A167"/>
<rect x="79" y="2" width="194" height="60" rx="14" fill="#D6FFD2"/>
<path d="M113.238 41.2592C111.874 41.2592 110.674 41.0864 109.638 40.7408C108.601 40.376 107.727 39.8384 107.017 39.128C106.326 38.4176 105.798 37.5344 105.433 36.4784C105.068 35.4224 104.886 34.2032 104.886 32.8208V21.992C104.886 21.4928 105.01 21.1184 105.26 20.8688C105.529 20.6192 105.903 20.4944 106.383 20.4944C106.863 20.4944 107.228 20.6192 107.478 20.8688C107.746 21.1184 107.881 21.4928 107.881 21.992V32.7632C107.881 34.7408 108.332 36.2192 109.234 37.1984C110.156 38.1776 111.49 38.6672 113.238 38.6672C115.004 38.6672 116.338 38.1776 117.241 37.1984C118.143 36.2192 118.594 34.7408 118.594 32.7632V21.992C118.594 21.4928 118.719 21.1184 118.969 20.8688C119.238 20.6192 119.602 20.4944 120.063 20.4944C120.543 20.4944 120.908 20.6192 121.158 20.8688C121.407 21.1184 121.532 21.4928 121.532 21.992V32.8208C121.532 34.664 121.215 36.2192 120.582 37.4864C119.967 38.7344 119.046 39.6752 117.817 40.3088C116.588 40.9424 115.062 41.2592 113.238 41.2592ZM133.985 41.2016C133.505 41.2016 133.131 41.0672 132.862 40.7984C132.612 40.5296 132.487 40.1552 132.487 39.6752V22.2224C132.487 21.7232 132.622 21.3488 132.891 21.0992C133.159 20.8304 133.534 20.696 134.014 20.696H140.897C143.086 20.696 144.775 21.2432 145.966 22.3376C147.156 23.4128 147.751 24.9296 147.751 26.888C147.751 28.8656 147.156 30.4016 145.966 31.496C144.775 32.5712 143.086 33.1088 140.897 33.1088H135.483V39.6752C135.483 40.1552 135.358 40.5296 135.108 40.7984C134.859 41.0672 134.484 41.2016 133.985 41.2016ZM135.483 30.7184H140.465C141.905 30.7184 142.99 30.4016 143.719 29.768C144.468 29.1152 144.843 28.1552 144.843 26.888C144.843 25.64 144.468 24.6992 143.719 24.0656C142.99 23.4128 141.905 23.0864 140.465 23.0864H135.483V30.7184ZM158.914 41C158.396 41 157.993 40.8656 157.705 40.5968C157.436 40.3088 157.302 39.9056 157.302 39.3872V22.3088C157.302 21.7904 157.436 21.3968 157.705 21.128C157.993 20.84 158.396 20.696 158.914 20.696H164.473C167.814 20.696 170.386 21.5696 172.191 23.3168C174.015 25.0448 174.927 27.5504 174.927 30.8336C174.927 32.4656 174.697 33.9152 174.236 35.1824C173.775 36.4496 173.094 37.5152 172.191 38.3792C171.308 39.224 170.223 39.8768 168.937 40.3376C167.65 40.7792 166.162 41 164.473 41H158.914ZM160.297 38.4944H164.3C165.567 38.4944 166.662 38.3408 167.583 38.0336C168.524 37.7072 169.311 37.2272 169.945 36.5936C170.578 35.96 171.049 35.1632 171.356 34.2032C171.663 33.2432 171.817 32.12 171.817 30.8336C171.817 28.28 171.183 26.3696 169.916 25.1024C168.668 23.8352 166.796 23.2016 164.3 23.2016H160.297V38.4944ZM184.757 41.2016C184.373 41.2016 184.066 41.1152 183.835 40.9424C183.605 40.7696 183.47 40.5392 183.432 40.2512C183.394 39.9632 183.451 39.6368 183.605 39.272L191.41 21.7616C191.602 21.3008 191.842 20.9744 192.13 20.7824C192.437 20.5904 192.773 20.4944 193.138 20.4944C193.483 20.4944 193.8 20.5904 194.088 20.7824C194.395 20.9744 194.645 21.3008 194.837 21.7616L202.642 39.272C202.814 39.6368 202.882 39.9728 202.843 40.28C202.805 40.568 202.68 40.7984 202.469 40.9712C202.258 41.1248 201.96 41.2016 201.576 41.2016C201.154 41.2016 200.818 41.096 200.568 40.8848C200.318 40.6736 200.098 40.3472 199.906 39.9056L197.89 35.24L199.243 36.0464H186.974L188.299 35.24L186.312 39.9056C186.12 40.3664 185.909 40.7024 185.678 40.9136C185.448 41.1056 185.141 41.2016 184.757 41.2016ZM193.08 24.008L188.731 34.3184L188.011 33.6272H198.178L197.515 34.3184L193.138 24.008H193.08ZM216.644 41.2016C216.164 41.2016 215.789 41.0672 215.52 40.7984C215.271 40.5296 215.146 40.1552 215.146 39.6752V23.2016H209.04C208.637 23.2016 208.32 23.096 208.09 22.8848C207.86 22.6544 207.744 22.3376 207.744 21.9344C207.744 21.5312 207.86 21.224 208.09 21.0128C208.32 20.8016 208.637 20.696 209.04 20.696H224.218C224.64 20.696 224.967 20.8016 225.197 21.0128C225.428 21.224 225.543 21.5312 225.543 21.9344C225.543 22.3376 225.428 22.6544 225.197 22.8848C224.967 23.096 224.64 23.2016 224.218 23.2016H218.112V39.6752C218.112 40.1552 217.988 40.5296 217.738 40.7984C217.508 41.0672 217.143 41.2016 216.644 41.2016ZM235.747 41C235.229 41 234.826 40.8656 234.538 40.5968C234.269 40.3088 234.135 39.9056 234.135 39.3872V22.3088C234.135 21.7904 234.269 21.3968 234.538 21.128C234.826 20.84 235.229 20.696 235.747 20.696H246.259C246.663 20.696 246.97 20.8016 247.181 21.0128C247.392 21.2048 247.498 21.4928 247.498 21.8768C247.498 22.28 247.392 22.5872 247.181 22.7984C246.97 23.0096 246.663 23.1152 246.259 23.1152H237.015V29.48H245.626C246.048 29.48 246.355 29.5856 246.547 29.7968C246.759 30.008 246.864 30.3056 246.864 30.6896C246.864 31.0928 246.759 31.4 246.547 31.6112C246.355 31.8032 246.048 31.8992 245.626 31.8992H237.015V38.5808H246.259C246.663 38.5808 246.97 38.6864 247.181 38.8976C247.392 39.1088 247.498 39.4064 247.498 39.7904C247.498 40.1936 247.392 40.5008 247.181 40.712C246.97 40.904 246.663 41 246.259 41H235.747Z" fill="#41A167"/>
</svg>
