<svg width="72" height="65" viewBox="0 0 72 65" fill="none" xmlns="http://www.w3.org/2000/svg">
<g clip-path="url(#clip0_108_651)">
<path d="M61.8276 56.9235C51.1445 71.2182 21.2339 67.7795 9.14226 52.6588C2.85271 44.7935 2.9554 35.7309 3.0119 33.9126C3.44597 19.9732 14.4273 5.74884 28.3495 4.14932C38.7719 2.95181 46.821 9.29113 49.3169 11.2568C62.5967 21.7164 71.3014 44.2475 61.8276 56.9235Z" fill="#F4F7FA"/>
<path d="M16.9051 25.7068C13.8139 24.8171 9.30487 20.9255 8.30079 19.5306C6.84559 17.5307 7.06595 15.165 8.38394 14.5975C10.7663 13.558 14.0488 18.6387 14.9157 19.6054C15.452 20.2041 15.8075 20.1002 16.111 19.674C17.6411 17.5224 16.5268 16.3312 14.4479 15.1484C12.8451 14.2378 8.18229 10.9907 8.5253 9.16542C8.66874 8.40041 10.2882 6.52945 11.1343 5.90995C13.5374 4.15748 15.3439 5.32579 17.0818 7.7622C20.7365 12.8886 21.3788 12.6662 18.7096 19.6116C17.944 21.598 17.3609 23.65 16.9675 25.7422" fill="#D7E9E2"/>
<path d="M16.9051 25.7068C13.8139 24.8171 9.30487 20.9255 8.30079 19.5306C6.84559 17.5307 7.06595 15.165 8.38394 14.5975C10.7663 13.558 14.0488 18.6387 14.9157 19.6054C15.452 20.2041 15.8075 20.1002 16.111 19.674C17.641 17.5224 16.5268 16.3312 14.4479 15.1484C12.8451 14.2378 8.18229 10.9907 8.5253 9.16542C8.66874 8.40041 10.2882 6.52945 11.1343 5.90995C13.5374 4.15748 15.3439 5.32579 17.0818 7.7622C20.7365 12.8886 21.3788 12.6662 18.7096 19.6116C17.944 21.598 17.3609 23.65 16.9675 25.7422" stroke="#FFAC52" stroke-width="0.207885" stroke-linecap="round" stroke-linejoin="round"/>
<path d="M8.64209 9.96617C10.6607 10.0701 13.7145 7.13062 13.8226 5.11206" stroke="#FFAC52" stroke-width="0.207885" stroke-linecap="round" stroke-linejoin="round"/>
<path d="M7.33838 17.2107C7.87472 17.3666 8.98275 16.7845 9.26963 16.3064C9.55651 15.8282 9.67085 15.3127 9.84963 14.5955" stroke="#FFAC52" stroke-width="0.207885" stroke-linecap="round" stroke-linejoin="round"/>
<path d="M9.42151 38.6333C9.61277 36.9827 11.7082 33.2657 10.0722 31.9228C8.40912 30.5549 6.47995 34.4278 1.98548 34.4693C1.19344 34.4693 0.222613 34.1554 0.114513 33.3696C-0.159895 31.3407 4.35536 31.4509 6.12654 31.1266C7.9975 30.7877 8.51098 29.7088 8.20539 29.2556C7.8998 28.8024 6.06626 28.5571 4.69837 28.9063C3.83773 29.1267 3.02074 29.5508 2.13307 29.5882C-0.166131 29.6859 -0.879176 26.7672 2.4844 26.4388C6.84998 26.023 10.4609 28.9479 14.207 23.0814C16.3607 19.7074 17.1174 12.5271 19.1484 11.7642C20.0153 11.4253 23.2043 11.8057 22.7178 8.54195C22.4226 6.55041 20.6182 4.96633 20.6577 2.91867C20.6868 1.34498 22.433 0.261898 23.2375 2.82096C24.8694 8.01808 24.8424 8.12202 25.2312 8.5274C25.6469 8.97019 26.3537 9.07413 26.7404 8.28833C27.5927 6.56081 26.6697 4.59214 26.8111 2.7482C27.0398 -0.266129 29.8649 -0.465699 30.4761 0.960391C31.0228 2.23888 29.4159 5.67522 30.2204 8.42553C30.3784 8.96396 30.6528 9.19263 31.1517 8.95148C33.6463 7.74575 32.8252 2.68376 35.904 2.55279C36.7355 2.51953 37.3779 3.02884 37.0452 4.09737C36.4632 5.96834 34.5174 7.44848 34.744 9.39428C34.8625 10.4067 35.5609 11.2382 36.1326 12.0843C40.0367 17.8635 36.4507 22.2707 39.3299 24.1936C40.914 25.2538 46.6849 22.9151 46.4416 26.2932C46.4151 26.5261 46.3428 26.7514 46.229 26.9563C46.1152 27.1612 45.9621 27.3416 45.7784 27.4872C45.5948 27.6328 45.3842 27.7407 45.1587 27.8048C44.9333 27.8689 44.6974 27.8879 44.4647 27.8607C44.132 27.8066 43.8223 27.6528 43.4918 27.5842C42.7662 27.4262 40.9431 27.684 40.7227 28.6008C40.5024 29.5175 42.4087 30.401 42.9637 30.9748C51.539 39.9014 42.0885 58.6422 35.3759 60.9913C25.7259 64.3756 7.95593 51.2103 9.42151 38.6333Z" fill="#FC6B92" stroke="#FFAC52" stroke-width="0.207885" stroke-linecap="round" stroke-linejoin="round"/>
<path d="M15.8578 19.9111C11.2739 18.8301 6.7919 21.4619 5.9666 27.3368C5.6028 29.927 5.9666 36.4442 7.70244 38.9139C8.56724 40.1445 10.2449 40.8326 10.7334 37.7788C11.1688 35.096 12.4854 32.6347 14.4753 30.7835C16.5687 28.8502 28.1458 22.8111 15.8578 19.9111Z" fill="#FF8893" stroke="#FFAC52" stroke-width="0.207885" stroke-linecap="round" stroke-linejoin="round"/>
<path d="M21.7326 30.8399C37.3634 32.162 25.7926 23.1253 34.8917 20.8323C38.2303 20.0007 41.1053 21.589 42.7663 21.1691C46.1362 20.3188 45.9387 14.0012 42.2924 13.2466C38.6461 12.4919 37.4362 17.3502 30.1914 15.5333C28.7362 15.1695 27.2623 14.6186 25.7822 14.8514C23.2397 15.2485 21.5538 17.9198 21.4166 20.4893C21.3397 21.853 21.5268 23.4101 20.585 24.3954C19.4396 25.5887 15.864 25.4349 16.2818 27.7819C16.6643 30.025 19.9198 30.686 21.7326 30.8399Z" fill="#D7E9E2" stroke="#FFAC52" stroke-width="0.207885" stroke-linecap="round" stroke-linejoin="round"/>
<path d="M43.7186 13.9407C42.2925 13.2463 40.8352 15.0653 40.6939 16.6432C40.4964 18.8779 42.3923 21.5056 44.6291 19.6741" stroke="#FFAC52" stroke-width="0.207885" stroke-linecap="round" stroke-linejoin="round"/>
<path d="M45.6706 24.7007C44.494 25.1165 44.442 27.7587 45.6706 27.5591" stroke="#FFAC52" stroke-width="0.207885" stroke-linecap="round" stroke-linejoin="round"/>
<path d="M34.8271 2.8667C34.7169 3.85415 36.5276 4.6254 37.1138 3.81465" stroke="#FFAC52" stroke-width="0.207885" stroke-linecap="round" stroke-linejoin="round"/>
<path d="M27.5054 0.848145C27.3661 1.31381 29.5427 2.13911 30.4158 0.848145" stroke="#FFAC52" stroke-width="0.207885" stroke-linecap="round" stroke-linejoin="round"/>
<path d="M20.6514 2.91038C21.2584 3.35734 22.4475 2.12042 22.4953 1.53003" stroke="#FFAC52" stroke-width="0.207885" stroke-linecap="round" stroke-linejoin="round"/>
<path d="M0.831543 34.2302C1.49677 33.7375 1.50509 32.5463 0.887672 32.0952" stroke="#FFAC52" stroke-width="0.207885" stroke-linecap="round" stroke-linejoin="round"/>
<path d="M0.852279 29.2639C1.47593 29.0331 1.47593 27.1019 0.791992 26.9958" stroke="#FFAC52" stroke-width="0.207885" stroke-linecap="round" stroke-linejoin="round"/>
<path d="M9.89746 36.7519C10.5793 32.4549 13.0698 28.4469 16.8159 26.2329" stroke="#FFAC52" stroke-width="0.207885" stroke-linecap="round" stroke-linejoin="round"/>
<path d="M20.4727 17.3271C21.7428 13.3773 26.7903 11.0781 32.187 13.475" stroke="#FFAC52" stroke-width="0.207885" stroke-linecap="round" stroke-linejoin="round"/>
<path d="M35.981 19.1648C33.9277 19.308 32.0045 20.222 30.5969 21.7237C29.1892 23.2254 28.4013 25.2037 28.3911 27.2619" stroke="#FFAC52" stroke-width="0.207885" stroke-linecap="round" stroke-linejoin="round"/>
<path d="M23.5474 55.8794C26.9858 59.3594 33.1101 59.9685 35.428 58.8854C37.1243 58.0892 38.4423 55.9272 38.9953 54.1956" stroke="#FFAC52" stroke-width="0.207885" stroke-linecap="round" stroke-linejoin="round"/>
<path d="M38.1927 33.6917C35.2511 32.7105 31.2265 32.9994 29.1019 30.3343C27.524 28.3573 27.5407 24.8212 30.9729 22.9336C36.1159 20.0981 43.4937 24.0791 42.2548 31.1264C42.076 32.1471 41.7122 33.2759 41.0781 34.1116C40.1052 35.388 39.4338 34.1074 38.1927 33.6917Z" fill="#FF8893" stroke="#FFAC52" stroke-width="0.207885" stroke-linecap="round" stroke-linejoin="round"/>
<path d="M30.208 27.5447C30.3057 31.2346 35.7772 31.2284 38.0952 32.6358" stroke="#FFAC52" stroke-width="0.207885" stroke-linecap="round" stroke-linejoin="round"/>
<path d="M40.4917 26.2205C40.8514 26.9131 41.0667 27.6715 41.1246 28.4498C41.1825 29.2281 41.0817 30.01 40.8285 30.7482" stroke="#FFAC52" stroke-width="0.207885" stroke-linecap="round" stroke-linejoin="round"/>
<path opacity="0.4" d="M10.0264 8.06368C9.89544 8.32977 10.1865 8.73099 10.4796 8.5231C10.8538 8.24662 11.1947 7.94934 11.5502 7.64583C13.6623 5.84139 11.3631 5.33207 10.0264 8.06368Z" fill="white"/>
<path opacity="0.4" d="M15.8388 8.4359C14.0925 6.16372 13.5666 8.18644 12.891 8.97432C12.0179 9.99504 10.0076 11.1197 11.02 11.18C12.0324 11.2403 13.3629 10.6956 14.4231 9.22586C14.8825 10.0574 15.0966 10.9783 16.0196 11.4835C16.4229 11.6976 18.3438 11.6976 15.8388 8.4359Z" fill="white"/>
<path opacity="0.4" d="M11.5023 16.0776C11.4046 15.3958 10.1989 15.0133 9.3798 16.5371C9.28002 16.7242 8.44432 17.828 9.26547 18.0255C10.4774 18.3166 11.6998 17.4788 11.5023 16.0776Z" fill="white"/>
<path opacity="0.4" d="M8.6896 15.0424C8.24889 14.8574 8.13455 15.3979 7.96201 15.8449C7.83935 16.1629 8.33828 16.4311 8.55032 16.0922C8.76236 15.7534 9.18021 15.2503 8.6896 15.0424Z" fill="white"/>
<path opacity="0.4" d="M27.9543 17.0693C27.1457 16.0881 24.3454 16.0943 23.5451 20.6678C22.8258 24.7776 20.5349 25.4075 18.8199 26.7276C17.9717 27.3804 21.3956 27.6984 23.9193 23.7923C25.2601 21.7134 25.0003 19.5992 26.0771 18.7344C26.5657 18.3415 27.0708 18.4351 27.6321 18.2896C28.1934 18.144 28.2911 17.4747 27.9543 17.0693Z" fill="white"/>
<path opacity="0.4" d="M35.3155 16.7222C34.7376 16.7222 34.1888 16.9446 33.6358 17.0922C32.9894 17.2446 32.3339 17.3557 31.6734 17.4248C30.1267 17.6327 34.1181 19.0879 35.5982 17.404C35.6472 17.3457 35.6793 17.2751 35.6909 17.1998C35.7025 17.1246 35.6933 17.0475 35.6641 16.9772C35.6349 16.9068 35.587 16.8458 35.5255 16.8009C35.464 16.7559 35.3914 16.7287 35.3155 16.7222Z" fill="white"/>
<path opacity="0.4" d="M40.093 18.14C40.0306 17.7243 39.7833 17.982 39.8851 16.4582C39.935 15.7722 38.9226 15.1444 38.2678 16.0196C37.6711 16.82 38.0599 18.1816 38.8519 18.6535C39.8269 19.2231 40.3736 18.5745 40.093 18.14Z" fill="white"/>
<path opacity="0.4" d="M43.6144 16.5911C43.4751 15.4768 42.1135 15.4373 42.3027 17.8176C42.365 18.5909 43.8951 18.8175 43.6144 16.5911Z" fill="white"/>
<path opacity="0.4" d="M25.4184 27.0831C24.0776 26.8753 22.0403 27.6174 21.4686 28.1683C21.0653 28.5508 22.19 29.1682 23.6244 28.9998C25.6554 28.7774 26.2541 27.21 25.4184 27.0831Z" fill="white"/>
<g opacity="0.2">
<path d="M15.9593 21.2518C14.4729 19.3809 9.63958 21.7528 7.79149 25.1268C5.94339 28.5008 6.75206 32.8185 7.77694 36.3401C7.8497 36.5937 8.2821 36.5584 8.25507 36.2757C7.7707 31.2157 7.74991 26.2452 12.5895 24.0728C13.0967 23.8421 17.4623 23.1394 15.9593 21.2518Z" fill="white"/>
<path d="M38.0558 29.2784C37.0642 29.2514 35.9604 28.2868 35.449 27.5031C34.8898 26.6466 34.9459 25.5677 34.3804 24.7424C33.7776 23.8589 32.1353 23.5471 31.6135 24.7424C30.8069 26.5801 31.9108 28.6423 33.499 29.7129C35.5612 31.1037 37.1162 30.3491 38.166 30.083C38.6213 29.9686 38.5111 29.2909 38.0558 29.2784Z" fill="white"/>
<path d="M37.5154 23.4723C37.1786 23.281 36.7836 23.7509 37.0892 24.0232C37.4301 24.3246 37.6442 24.7238 37.9582 25.046C38.4467 25.5511 39.1888 24.4161 37.5154 23.4723Z" fill="white"/>
<path d="M21.3192 11.8349C19.2923 12.2506 16.8497 15.9364 17.3902 18.9029C17.4067 18.9574 17.4386 19.006 17.482 19.0427C17.5255 19.0795 17.5786 19.1029 17.6351 19.1102C17.6915 19.1174 17.7489 19.1082 17.8002 19.0836C17.8516 19.059 17.8947 19.0201 17.9244 18.9715C18.4795 17.8469 18.9514 16.7056 19.6353 15.6454C20.3193 14.5852 21.4065 13.8222 22.001 12.7142C22.0557 12.6104 22.0793 12.493 22.069 12.3761C22.0588 12.2592 22.0151 12.1478 21.9432 12.055C21.8713 11.9623 21.7742 11.8922 21.6636 11.8532C21.5529 11.8141 21.4334 11.8078 21.3192 11.8349Z" fill="white"/>
<path d="M23.1191 4.62527C22.5266 3.37796 21.6639 3.53595 21.9154 4.07853C21.9154 4.09932 22.8176 5.87466 22.8343 5.89545C23.1711 6.34448 23.6471 5.73953 23.1191 4.62527Z" fill="white"/>
<path d="M28.0643 8.05123C28.1807 8.56471 28.8501 8.37761 28.9063 7.9369C29.902 0.363655 26.9937 3.3073 28.0643 8.05123Z" fill="white"/>
<path d="M33.611 5.76036C33.2472 6.62724 33.4946 5.57742 32.9375 8.14896C32.8606 8.50028 33.3366 8.87447 33.6048 8.5377C34.4135 7.52946 34.6193 6.71455 34.6068 5.89549C34.5964 5.2843 33.821 5.25936 33.611 5.76036Z" fill="white"/>
<path d="M2.14972 27.9044C1.99173 28.3014 2.71309 28.6133 3.65689 27.8087C4.20778 27.3389 2.71309 26.4907 2.14972 27.9044Z" fill="white"/>
<path d="M3.97521 32.43C3.7112 31.9748 3.08962 32.3614 3.11041 32.3573C2.98398 32.3552 2.85946 32.3883 2.75077 32.4529C2.46389 32.4342 2.4826 33.0994 3.06675 33.2075C3.77148 33.3281 4.20804 32.8167 3.97521 32.43Z" fill="white"/>
<path d="M17.4126 48.9444C17.0467 47.6534 15.5915 46.7928 14.3566 44.1485C13.0303 41.3005 13.2507 40.0074 12.627 38.8744C12.1156 37.941 10.4006 40.8057 12.2009 45.2295C14.5521 51.0108 17.8595 50.57 17.4126 48.9444Z" fill="white"/>
<path d="M33.842 55.1662C32.4762 55.1828 33.1643 55.7566 30.2456 55.2597C28.8673 55.0269 27.5431 54.5446 26.1835 54.266C23.666 53.7546 32.7444 59.7521 34.5821 56.4571C34.6554 56.3264 34.6936 56.1789 34.6929 56.0289C34.6923 55.879 34.6527 55.7318 34.5781 55.6018C34.5036 55.4717 34.3966 55.3632 34.2675 55.2868C34.1385 55.2105 33.9919 55.1689 33.842 55.1662Z" fill="white"/>
<path d="M25.8046 42.2421C22.7299 40.4792 20.5035 35.4816 19.4079 33.646C19.015 32.9891 18.9548 35.65 21.4868 39.5853C22.3412 40.9178 23.8151 43.4998 25.7006 43.1193C26.1018 43.032 26.1476 42.4375 25.8046 42.2421Z" fill="white"/>
<path d="M28.5113 37.5624C26.1601 35.8266 27.6278 37.6539 23.7799 33.966C23.6156 33.8101 23.283 33.966 23.3641 34.203C24.0792 36.1093 26.2287 38.1133 28.3118 38.2713C28.7358 38.3025 28.7816 37.762 28.5113 37.5624Z" fill="white"/>
<path d="M44.2465 25.1539C43.6041 24.5739 42.0325 24.9148 42.8162 25.7775C43.733 26.7858 44.8265 25.6674 44.2465 25.1539Z" fill="white"/>
<path d="M28.0353 10.6186C27.9448 10.6186 27.8581 10.6545 27.7942 10.7184C27.7303 10.7824 27.6943 10.8691 27.6943 10.9595C27.6943 11.0499 27.7303 11.1366 27.7942 11.2006C27.8581 11.2645 27.9448 11.3004 28.0353 11.3004C31.5319 11.737 32.484 12.6766 34.2988 13.1423C35.9037 13.5518 33.6606 10.0573 28.0353 10.6186Z" fill="white"/>
</g>
<path d="M65.4086 58.3878C71.6963 52.1001 71.6963 41.9057 65.4086 35.618C59.1209 29.3303 48.9265 29.3303 42.6388 35.618C36.3511 41.9057 36.3511 52.1001 42.6388 58.3878C48.9265 64.6755 59.1209 64.6755 65.4086 58.3878Z" fill="#D7E9E2" stroke="#FFAC52" stroke-width="0.207885" stroke-linecap="round" stroke-linejoin="round"/>
<path d="M54.0504 64.3591C52.5581 64.3581 51.0721 64.1659 49.6287 63.7874C45.3878 62.6681 41.7318 59.9768 39.403 56.26C37.0742 52.5432 36.2471 48.0795 37.0897 43.775C37.9323 39.4706 40.3815 35.6482 43.9398 33.0838C47.4982 30.5195 51.8991 29.4054 56.249 29.9678C60.599 30.5302 64.5718 32.7269 67.361 36.1119C70.1502 39.497 71.5466 43.8166 71.2668 48.1938C70.9869 52.571 69.0518 56.6776 65.8543 59.6799C62.6568 62.6822 58.4365 64.3552 54.0504 64.3591ZM53.9964 32.1515C50.7246 32.1589 47.5469 33.2465 44.9567 35.2453C42.3666 37.2442 40.509 40.0424 39.6724 43.2054C38.8359 46.3684 39.0672 49.7191 40.3305 52.7371C41.5938 55.7551 43.8183 58.2715 46.6586 59.8955C49.4989 61.5194 52.7959 62.16 56.0376 61.7177C59.2793 61.2754 62.2843 59.7751 64.5857 57.4496C66.8872 55.1242 68.3563 52.1039 68.765 48.8578C69.1737 45.6116 68.499 42.3214 66.8457 39.4981C65.5406 37.251 63.6653 35.3882 61.4094 34.0982C59.1535 32.8082 56.5971 32.1367 53.9984 32.1515H53.9964Z" fill="#FFAC52" stroke="#FFAC52" stroke-width="0.207885" stroke-linecap="round" stroke-linejoin="round"/>
<path d="M63.5167 56.496C68.7596 51.2531 68.7596 42.7527 63.5168 37.5099C58.2739 32.267 49.7735 32.267 44.5306 37.5099C39.2878 42.7527 39.2878 51.2531 44.5306 56.496C49.7735 61.7388 58.2739 61.7388 63.5167 56.496Z" fill="white" stroke="#FFAC52" stroke-width="0.207885" stroke-linecap="round" stroke-linejoin="round"/>
<path d="M48.1338 36.9369C49.4566 36.1408 50.9243 35.6152 52.4518 35.3906C53.9793 35.1661 55.5362 35.247 57.0321 35.6287C58.5281 36.0104 59.9334 36.6852 61.1666 37.6142C62.3998 38.5431 63.4363 39.7076 64.216 41.0402C64.9957 42.3727 65.5031 43.8468 65.7088 45.3769C65.9145 46.9071 65.8144 48.4628 65.4143 49.954C65.0142 51.4451 64.322 52.842 63.378 54.0636C62.4339 55.2853 61.2567 56.3073 59.9146 57.0705L48.1338 36.9369Z" fill="#FF8893" stroke="#FFAC52" stroke-width="0.207885" stroke-linecap="round" stroke-linejoin="round"/>
<path d="M50.4351 49.7947L59.081 38.4795L53.2956 51.491L50.4351 49.7947Z" fill="#415DA1" stroke="#FFAC52" stroke-width="0.207885" stroke-linecap="round" stroke-linejoin="round"/>
<path d="M55.6179 49.7262C55.0791 50.0402 54.4594 50.1874 53.837 50.1492C53.2146 50.111 52.6175 49.8892 52.1211 49.5117C51.6248 49.1343 51.2515 48.6181 51.0484 48.0286C50.8453 47.439 50.8216 46.8024 50.9802 46.1994C51.1388 45.5963 51.4726 45.0538 51.9395 44.6404C52.4064 44.2271 52.9853 43.9614 53.6031 43.8769C54.2209 43.7925 54.8499 43.8931 55.4106 44.1661C55.9712 44.4391 56.4384 44.8721 56.753 45.4105C57.1747 46.1334 57.292 46.9941 57.0791 47.8034C56.8663 48.6128 56.3407 49.3044 55.6179 49.7262Z" fill="#415DA1" stroke="#FFAC52" stroke-width="0.207885" stroke-linecap="round" stroke-linejoin="round"/>
<path opacity="0.2" d="M52.8715 38.7579C52.541 37.7891 52.4142 36.5792 51.4558 36.0325C51.3742 35.9873 51.2834 35.9609 51.1903 35.9554C51.0971 35.9499 51.0039 35.9654 50.9175 36.0007C50.8312 36.036 50.7538 36.0903 50.6912 36.1595C50.6285 36.2286 50.5822 36.311 50.5557 36.4005C49.7699 38.4419 55.3412 46.0276 52.8715 38.7579Z" fill="white"/>
<path opacity="0.2" d="M56.7798 36.862C56.7278 36.5045 56.2227 36.4255 55.9982 36.6542C54.5076 38.18 55.125 41.7536 55.8048 40.7765C56.2975 40.0655 56.9129 37.7705 56.7798 36.862Z" fill="white"/>
<path opacity="0.2" d="M62.4902 41.818C61.035 42.2982 58.1247 45.4539 59.4738 45.0631C60.3366 44.8136 62.4445 43.2878 62.9413 42.4043C62.9793 42.3355 62.9964 42.2571 62.9905 42.1788C62.9846 42.1004 62.9559 42.0255 62.908 41.9633C62.8601 41.901 62.795 41.8541 62.7208 41.8283C62.6466 41.8025 62.5664 41.7989 62.4902 41.818Z" fill="white"/>
<path opacity="0.2" d="M64.2238 45.6513C62.6876 45.5994 60.8977 46.196 59.6379 47.0733C59.5599 47.1221 59.4996 47.1945 59.4656 47.28C59.4316 47.3655 59.4258 47.4596 59.449 47.5487C59.4722 47.6377 59.5232 47.717 59.5945 47.7751C59.6659 47.8331 59.7539 47.8669 59.8458 47.8715C62.9474 48.0212 65.6915 45.7012 64.2238 45.6513Z" fill="white"/>
<path opacity="0.2" d="M59.3285 50.2019C59 49.994 58.7215 50.441 58.9377 50.7071C60.4656 52.578 60.8253 53.025 61.3284 53.158C61.8314 53.2911 63.0413 52.5635 59.3285 50.2019Z" fill="white"/>
<path opacity="0.1" d="M55.7842 45.2671C54.9152 44.1757 53.1232 44.4585 52.3478 45.5041C51.6473 46.4479 51.9924 47.7389 52.9091 48.4145C53.117 48.5663 53.3831 48.2731 53.2563 48.0673C52.7906 47.3169 53.3228 45.8367 54.8196 46.5269C55.6594 46.9032 56.3538 45.9823 55.7842 45.2671Z" fill="white"/>
<path opacity="0.1" d="M40.538 39.1612C40.558 39.0694 40.5482 38.9735 40.5099 38.8877C40.4716 38.8018 40.4068 38.7304 40.3251 38.684C40.2434 38.6376 40.1489 38.6185 40.0556 38.6295C39.9622 38.6406 39.8748 38.6812 39.8062 38.7454C38.4778 40.1029 36.1661 46.3 38.8686 52.7652C38.9705 53.0126 39.3676 52.9232 39.2844 52.6509C37.0164 45.4684 40.2573 40.3462 40.538 39.1612Z" fill="white"/>
<path opacity="0.1" d="M43.1738 35.7042C43.3359 35.9931 43.8182 35.8767 43.7974 35.3549C43.97 34.7458 42.7642 34.9766 43.1738 35.7042Z" fill="white"/>
<path opacity="0.1" d="M46.0965 33.0267C45.7452 32.4799 44.7889 33.114 45.0945 33.5901C45.4375 34.1181 46.4146 33.5215 46.0965 33.0267Z" fill="white"/>
<path opacity="0.1" d="M60.4591 31.773C58.9706 30.2263 54.3265 29.6214 52.5158 30.9082C51.7134 31.4778 54.9023 31.1348 56.3138 31.3759C57.6131 31.5983 58.7378 32.2761 59.9934 32.5712C60.0943 32.5957 60.2004 32.5869 60.2959 32.5462C60.3914 32.5056 60.4712 32.4352 60.5235 32.3455C60.5758 32.2559 60.5978 32.1517 60.5862 32.0486C60.5746 31.9454 60.53 31.8488 60.4591 31.773Z" fill="white"/>
<path opacity="0.1" d="M56.393 42.8242C55.9939 43.1713 55.5823 44.2045 56.339 43.4645C57.0312 42.7951 56.5281 42.7119 56.393 42.8242Z" fill="white"/>
<path opacity="0.1" d="M64.9021 34.4298C64.4655 33.9953 63.819 34.9557 64.4198 35.149C64.715 35.2426 65.2472 34.7749 64.9021 34.4298Z" fill="white"/>
<path opacity="0.1" d="M67.0578 36.8787C66.748 36.2072 66.1015 36.4837 66.2013 36.9473C66.4216 37.9597 67.3322 37.469 67.0578 36.8787Z" fill="white"/>
<path opacity="0.1" d="M41.9473 57.8043C41.7893 57.4301 41.0263 57.6982 41.2114 58.1369C41.3693 58.5319 42.1053 58.1785 41.9473 57.8043Z" fill="white"/>
<path opacity="0.1" d="M43.3106 59.4863C43.2171 59.9021 44.1713 60.4426 44.3501 59.7961C44.5288 59.1496 43.3959 59.1163 43.3106 59.4863Z" fill="white"/>
<path opacity="0.1" d="M56.2288 62.2094C55.0626 62.3446 54.4015 62.804 51.7073 62.7312C51.4662 62.7312 51.4454 63.0576 51.6533 63.1324C53.1085 63.6605 55.0501 63.7831 56.4159 62.8996C56.6945 62.7188 56.6196 62.1575 56.2288 62.2094Z" fill="white"/>
<path opacity="0.1" d="M67.646 55.129C66.9143 55.8961 66.4465 56.9542 65.7751 57.7837C65.1036 58.6131 64.2284 59.3137 63.5549 60.1702C63.1744 60.6545 64.4342 60.6525 66.484 58.4925C69.5503 55.2516 68.0369 54.7174 67.646 55.129Z" fill="white"/>
<path opacity="0.1" d="M70.4587 44.9031C70.3714 44.5393 69.8808 44.6578 69.8454 44.9863C69.7186 46.2169 69.7643 47.4643 69.6521 48.697C69.5294 50.0296 69.2176 51.333 69.0388 52.6572C68.7873 54.5282 71.5355 49.4205 70.4587 44.9031Z" fill="white"/>
</g>
<defs>
<clipPath id="clip0_108_651">
<rect width="71.4833" height="64.463" fill="white"/>
</clipPath>
</defs>
</svg>
