<svg width="132" height="38" viewBox="0 0 132 38" fill="none" xmlns="http://www.w3.org/2000/svg">
<path d="M44.0761 24.1863C43.5949 24.1863 43.2223 24.0543 42.9584 23.7904C42.7101 23.511 42.5859 23.1307 42.5859 22.6495V8.93498C42.5859 8.43825 42.7101 8.05793 42.9584 7.79404C43.2223 7.53015 43.5949 7.39821 44.0761 7.39821C44.5573 7.39821 44.9221 7.53015 45.1704 7.79404C45.4343 8.05793 45.5663 8.43825 45.5663 8.93498V14.4301H54.0185V8.93498C54.0185 8.43825 54.1427 8.05793 54.3911 7.79404C54.655 7.53015 55.0275 7.39821 55.5087 7.39821C55.9899 7.39821 56.3547 7.53015 56.6031 7.79404C56.867 8.05793 56.9989 8.43825 56.9989 8.93498V22.6495C56.9989 23.1307 56.867 23.511 56.6031 23.7904C56.3547 24.0543 55.9899 24.1863 55.5087 24.1863C55.0275 24.1863 54.655 24.0543 54.3911 23.7904C54.1427 23.511 54.0185 23.1307 54.0185 22.6495V16.9215H45.5663V22.6495C45.5663 23.1307 45.4421 23.511 45.1937 23.7904C44.9454 24.0543 44.5728 24.1863 44.0761 24.1863ZM65.927 24.2328C64.6386 24.2328 63.5287 23.9922 62.5974 23.511C61.666 23.0298 60.9442 22.3468 60.4319 21.462C59.9352 20.5772 59.6868 19.5294 59.6868 18.3186C59.6868 17.1389 59.9274 16.1066 60.4086 15.2218C60.9054 14.337 61.5806 13.6462 62.4344 13.1495C63.3037 12.6372 64.2894 12.3811 65.3915 12.3811C66.1987 12.3811 66.9205 12.513 67.557 12.7769C68.2089 13.0408 68.76 13.4211 69.2101 13.9178C69.6758 14.4146 70.0251 15.02 70.2579 15.734C70.5063 16.4326 70.6305 17.2242 70.6305 18.109C70.6305 18.3885 70.5296 18.6058 70.3278 18.761C70.1415 18.9007 69.8699 18.9706 69.5128 18.9706H62.0385V17.2941H68.5815L68.2089 17.6434C68.2089 16.9293 68.1003 16.3317 67.8829 15.8505C67.6811 15.3692 67.3784 15.0045 66.9748 14.7561C66.5868 14.4922 66.0978 14.3602 65.5079 14.3602C64.856 14.3602 64.2971 14.5155 63.8314 14.8259C63.3813 15.1209 63.032 15.5478 62.7836 16.1066C62.5508 16.6499 62.4344 17.3018 62.4344 18.0625V18.2255C62.4344 19.4983 62.7293 20.453 63.3192 21.0894C63.9246 21.7104 64.8094 22.0208 65.9736 22.0208C66.3772 22.0208 66.8274 21.9743 67.3241 21.8811C67.8364 21.7725 68.3176 21.5939 68.7677 21.3456C69.0937 21.1593 69.3809 21.0817 69.6293 21.1127C69.8776 21.1283 70.0717 21.2136 70.2114 21.3689C70.3666 21.5241 70.4597 21.7181 70.4908 21.951C70.5218 22.1683 70.4753 22.3934 70.3511 22.6262C70.2424 22.8591 70.0484 23.0609 69.769 23.2316C69.2257 23.5731 68.597 23.8292 67.8829 24C67.1844 24.1552 66.5324 24.2328 65.927 24.2328ZM76.6843 24.2328C75.8615 24.2328 75.1242 24.0776 74.4722 23.7672C73.8358 23.4412 73.3313 23.0065 72.9588 22.4632C72.6017 21.9199 72.4232 21.3068 72.4232 20.6238C72.4232 19.7855 72.6405 19.1258 73.0752 18.6446C73.5098 18.1478 74.2161 17.7908 75.1941 17.5735C76.172 17.3562 77.4837 17.2475 79.1291 17.2475H80.2933V18.924H79.1524C78.19 18.924 77.4216 18.9706 76.8473 19.0637C76.2729 19.1568 75.8615 19.3198 75.6132 19.5527C75.3803 19.77 75.2639 20.0805 75.2639 20.4841C75.2639 20.9963 75.4424 21.4154 75.7995 21.7414C76.1565 22.0674 76.6532 22.2304 77.2897 22.2304C77.8019 22.2304 78.2521 22.114 78.6402 21.8811C79.0438 21.6328 79.362 21.299 79.5948 20.8799C79.8277 20.4608 79.9441 19.9796 79.9441 19.4363V16.7585C79.9441 15.9824 79.7733 15.4236 79.4318 15.0821C79.0903 14.7406 78.516 14.5698 77.7088 14.5698C77.2586 14.5698 76.7696 14.6241 76.2419 14.7328C75.7296 14.8415 75.1863 15.0277 74.612 15.2916C74.317 15.4313 74.0531 15.4701 73.8203 15.408C73.603 15.346 73.4322 15.2218 73.308 15.0355C73.1838 14.8337 73.1217 14.6164 73.1217 14.3835C73.1217 14.1507 73.1838 13.9256 73.308 13.7083C73.4322 13.4754 73.6418 13.3047 73.9367 13.196C74.6508 12.9011 75.3338 12.6915 75.9857 12.5673C76.6532 12.4432 77.2586 12.3811 77.8019 12.3811C78.9196 12.3811 79.8354 12.5518 80.5495 12.8933C81.2791 13.2348 81.8224 13.7549 82.1794 14.4534C82.5364 15.1364 82.7149 16.0212 82.7149 17.1078V22.6961C82.7149 23.1773 82.5985 23.5498 82.3657 23.8137C82.1328 24.0621 81.7991 24.1863 81.3644 24.1863C80.9298 24.1863 80.5883 24.0621 80.3399 23.8137C80.1071 23.5498 79.9907 23.1773 79.9907 22.6961V21.5784H80.1769C80.0683 22.1217 79.8509 22.5952 79.525 22.9988C79.2145 23.3868 78.8187 23.6895 78.3375 23.9069C77.8562 24.1242 77.3052 24.2328 76.6843 24.2328ZM89.5576 24.2328C88.2692 24.2328 87.2991 23.8681 86.6471 23.1385C85.9951 22.3934 85.6691 21.3068 85.6691 19.8787V8.86513C85.6691 8.38391 85.7933 8.01913 86.0417 7.77076C86.2901 7.52239 86.6471 7.39821 87.1128 7.39821C87.5785 7.39821 87.9355 7.52239 88.1839 7.77076C88.4477 8.01913 88.5797 8.38391 88.5797 8.86513V19.739C88.5797 20.453 88.7272 20.9808 89.0221 21.3223C89.3326 21.6638 89.7672 21.8345 90.326 21.8345C90.4502 21.8345 90.5666 21.8345 90.6753 21.8345C90.784 21.819 90.8926 21.8035 91.0013 21.788C91.2186 21.7569 91.3661 21.819 91.4437 21.9743C91.5213 22.114 91.5601 22.4089 91.5601 22.8591C91.5601 23.2471 91.4825 23.5498 91.3273 23.7672C91.172 23.9845 90.9159 24.1164 90.5589 24.163C90.4036 24.1785 90.2407 24.194 90.0699 24.2096C89.8991 24.2251 89.7284 24.2328 89.5576 24.2328ZM92.6704 24.1007C92.4978 24.1007 92.3587 24.0624 92.2531 23.9856C92.1572 23.9089 92.0996 23.8033 92.0805 23.669C92.0613 23.5347 92.0901 23.386 92.1668 23.223L96.0952 14.3301C96.1815 14.1286 96.2919 13.9847 96.4262 13.8984C96.5605 13.8024 96.7092 13.7545 96.8723 13.7545C97.0353 13.7545 97.1792 13.8024 97.3039 13.8984C97.4382 13.9847 97.5534 14.1286 97.6493 14.3301L101.578 23.223C101.654 23.386 101.683 23.5395 101.664 23.6834C101.654 23.8177 101.602 23.9233 101.506 24C101.41 24.0672 101.276 24.1007 101.103 24.1007C100.911 24.1007 100.757 24.0528 100.642 23.9568C100.527 23.8513 100.427 23.7026 100.34 23.5107L99.3185 21.122L99.9373 21.4674H93.7785L94.3972 21.122L93.3755 23.5107C93.2892 23.7218 93.1933 23.8753 93.0877 23.9712C92.9822 24.0576 92.8431 24.1007 92.6704 24.1007ZM96.8435 15.3661L94.5987 20.676L94.2533 20.3738H99.4624L99.1314 20.676L96.8723 15.3661H96.8435ZM105.514 24.1295C105.083 24.1295 104.646 24.0815 104.205 23.9856C103.773 23.8801 103.365 23.7026 102.982 23.4532C102.876 23.386 102.799 23.3045 102.751 23.2086C102.713 23.103 102.699 23.0023 102.708 22.9064C102.727 22.8009 102.771 22.7097 102.838 22.633C102.905 22.5562 102.986 22.5131 103.082 22.5035C103.188 22.4843 103.298 22.5083 103.413 22.5754C103.787 22.7865 104.147 22.9352 104.493 23.0215C104.847 23.1078 105.198 23.151 105.543 23.151C106.071 23.151 106.469 23.0551 106.737 22.8632C107.006 22.6713 107.14 22.4171 107.14 22.1006C107.14 21.8319 107.049 21.6257 106.867 21.4818C106.694 21.3283 106.421 21.2132 106.047 21.1364L104.708 20.863C104.114 20.7287 103.663 20.5081 103.356 20.2011C103.058 19.8845 102.91 19.4816 102.91 18.9924C102.91 18.5607 103.025 18.1865 103.255 17.87C103.495 17.5438 103.826 17.2944 104.248 17.1217C104.67 16.949 105.154 16.8627 105.701 16.8627C106.123 16.8627 106.521 16.9202 106.896 17.0354C107.279 17.1409 107.625 17.304 107.932 17.5246C108.047 17.5918 108.119 17.6781 108.148 17.7836C108.186 17.8796 108.191 17.9803 108.162 18.0858C108.143 18.1817 108.1 18.2633 108.032 18.3304C107.965 18.3976 107.879 18.4408 107.773 18.4599C107.668 18.4695 107.553 18.4408 107.428 18.3736C107.15 18.1817 106.862 18.0474 106.565 17.9707C106.277 17.8843 105.989 17.8412 105.701 17.8412C105.183 17.8412 104.79 17.9419 104.521 18.1434C104.262 18.3448 104.133 18.6086 104.133 18.9348C104.133 19.1842 104.21 19.3905 104.363 19.5536C104.526 19.7166 104.78 19.8366 105.126 19.9133L106.464 20.1867C107.087 20.321 107.558 20.5369 107.874 20.8343C108.191 21.122 108.349 21.5154 108.349 22.0142C108.349 22.6665 108.09 23.1846 107.572 23.5683C107.064 23.9424 106.378 24.1295 105.514 24.1295ZM112.47 24.1295C112.039 24.1295 111.602 24.0815 111.161 23.9856C110.729 23.8801 110.321 23.7026 109.938 23.4532C109.832 23.386 109.755 23.3045 109.707 23.2086C109.669 23.103 109.655 23.0023 109.664 22.9064C109.683 22.8009 109.727 22.7097 109.794 22.633C109.861 22.5562 109.942 22.5131 110.038 22.5035C110.144 22.4843 110.254 22.5083 110.369 22.5754C110.743 22.7865 111.103 22.9352 111.449 23.0215C111.803 23.1078 112.154 23.151 112.499 23.151C113.027 23.151 113.425 23.0551 113.693 22.8632C113.962 22.6713 114.096 22.4171 114.096 22.1006C114.096 21.8319 114.005 21.6257 113.823 21.4818C113.65 21.3283 113.377 21.2132 113.003 21.1364L111.664 20.863C111.07 20.7287 110.619 20.5081 110.312 20.2011C110.014 19.8845 109.866 19.4816 109.866 18.9924C109.866 18.5607 109.981 18.1865 110.211 17.87C110.451 17.5438 110.782 17.2944 111.204 17.1217C111.626 16.949 112.11 16.8627 112.657 16.8627C113.079 16.8627 113.477 16.9202 113.852 17.0354C114.235 17.1409 114.581 17.304 114.888 17.5246C115.003 17.5918 115.075 17.6781 115.104 17.7836C115.142 17.8796 115.147 17.9803 115.118 18.0858C115.099 18.1817 115.056 18.2633 114.988 18.3304C114.921 18.3976 114.835 18.4408 114.729 18.4599C114.624 18.4695 114.509 18.4408 114.384 18.3736C114.106 18.1817 113.818 18.0474 113.521 17.9707C113.233 17.8843 112.945 17.8412 112.657 17.8412C112.139 17.8412 111.746 17.9419 111.477 18.1434C111.218 18.3448 111.089 18.6086 111.089 18.9348C111.089 19.1842 111.166 19.3905 111.319 19.5536C111.482 19.7166 111.736 19.8366 112.082 19.9133L113.42 20.1867C114.043 20.321 114.514 20.5369 114.83 20.8343C115.147 21.122 115.305 21.5154 115.305 22.0142C115.305 22.6665 115.046 23.1846 114.528 23.5683C114.019 23.9424 113.334 24.1295 112.47 24.1295ZM117.656 24.0719C117.455 24.0719 117.297 24.0096 117.181 23.8849C117.066 23.7602 117.009 23.5875 117.009 23.3669V17.6253C117.009 17.3951 117.066 17.2224 117.181 17.1073C117.297 16.9826 117.455 16.9202 117.656 16.9202C117.867 16.9202 118.03 16.9826 118.146 17.1073C118.261 17.2224 118.318 17.3951 118.318 17.6253V23.3669C118.318 23.5875 118.261 23.7602 118.146 23.8849C118.04 24.0096 117.877 24.0719 117.656 24.0719ZM117.656 15.3661C117.397 15.3661 117.191 15.299 117.037 15.1647C116.894 15.0208 116.822 14.8337 116.822 14.6035C116.822 14.3541 116.894 14.167 117.037 14.0423C117.191 13.908 117.397 13.8408 117.656 13.8408C117.934 13.8408 118.141 13.908 118.275 14.0423C118.419 14.167 118.491 14.3541 118.491 14.6035C118.491 14.8337 118.419 15.0208 118.275 15.1647C118.141 15.299 117.934 15.3661 117.656 15.3661ZM122.841 24.1295C122.409 24.1295 121.973 24.0815 121.531 23.9856C121.1 23.8801 120.692 23.7026 120.308 23.4532C120.203 23.386 120.126 23.3045 120.078 23.2086C120.04 23.103 120.025 23.0023 120.035 22.9064C120.054 22.8009 120.097 22.7097 120.164 22.633C120.232 22.5562 120.313 22.5131 120.409 22.5035C120.515 22.4843 120.625 22.5083 120.74 22.5754C121.114 22.7865 121.474 22.9352 121.819 23.0215C122.174 23.1078 122.524 23.151 122.87 23.151C123.397 23.151 123.795 23.0551 124.064 22.8632C124.333 22.6713 124.467 22.4171 124.467 22.1006C124.467 21.8319 124.376 21.6257 124.194 21.4818C124.021 21.3283 123.748 21.2132 123.373 21.1364L122.035 20.863C121.44 20.7287 120.989 20.5081 120.682 20.2011C120.385 19.8845 120.236 19.4816 120.236 18.9924C120.236 18.5607 120.352 18.1865 120.582 17.87C120.822 17.5438 121.153 17.2944 121.575 17.1217C121.997 16.949 122.481 16.8627 123.028 16.8627C123.45 16.8627 123.848 16.9202 124.222 17.0354C124.606 17.1409 124.951 17.304 125.258 17.5246C125.374 17.5918 125.446 17.6781 125.474 17.7836C125.513 17.8796 125.517 17.9803 125.489 18.0858C125.469 18.1817 125.426 18.2633 125.359 18.3304C125.292 18.3976 125.206 18.4408 125.1 18.4599C124.995 18.4695 124.88 18.4408 124.755 18.3736C124.477 18.1817 124.189 18.0474 123.891 17.9707C123.604 17.8843 123.316 17.8412 123.028 17.8412C122.51 17.8412 122.117 17.9419 121.848 18.1434C121.589 18.3448 121.46 18.6086 121.46 18.9348C121.46 19.1842 121.536 19.3905 121.69 19.5536C121.853 19.7166 122.107 19.8366 122.452 19.9133L123.791 20.1867C124.414 20.321 124.884 20.5369 125.201 20.8343C125.517 21.122 125.676 21.5154 125.676 22.0142C125.676 22.6665 125.417 23.1846 124.899 23.5683C124.39 23.9424 123.704 24.1295 122.841 24.1295ZM130.216 24.1295C129.65 24.1295 129.175 24.0288 128.791 23.8273C128.417 23.6259 128.134 23.3333 127.942 22.9495C127.76 22.5658 127.669 22.0958 127.669 21.5393V17.9995H126.748C126.575 17.9995 126.441 17.9563 126.345 17.87C126.249 17.774 126.201 17.6493 126.201 17.4958C126.201 17.3327 126.249 17.208 126.345 17.1217C126.441 17.0354 126.575 16.9922 126.748 16.9922H127.669V15.4237C127.669 15.2031 127.727 15.04 127.842 14.9344C127.957 14.8193 128.12 14.7618 128.331 14.7618C128.542 14.7618 128.7 14.8193 128.806 14.9344C128.921 15.04 128.978 15.2031 128.978 15.4237V16.9922H130.72C130.902 16.9922 131.041 17.0354 131.137 17.1217C131.233 17.208 131.281 17.3327 131.281 17.4958C131.281 17.6493 131.233 17.774 131.137 17.87C131.041 17.9563 130.902 17.9995 130.72 17.9995H128.978V21.4242C128.978 21.9519 129.089 22.35 129.309 22.6186C129.53 22.8872 129.895 23.0215 130.403 23.0215C130.585 23.0215 130.739 23.0071 130.863 22.9783C130.988 22.94 131.099 22.9208 131.194 22.9208C131.281 22.9112 131.353 22.94 131.41 23.0071C131.477 23.0743 131.511 23.199 131.511 23.3812C131.511 23.5155 131.487 23.6403 131.439 23.7554C131.401 23.8609 131.319 23.9328 131.194 23.9712C131.079 24.0096 130.926 24.0432 130.734 24.0719C130.542 24.1103 130.369 24.1295 130.216 24.1295Z" fill="#415DA1"/>
<path d="M44.6979 34.7002C44.6028 34.7002 44.5291 34.674 44.4768 34.6217C44.4292 34.5647 44.4054 34.4862 44.4054 34.3864V32.0468L44.5338 32.4533L42.7435 29.9853C42.7007 29.9235 42.6793 29.8617 42.6793 29.7999C42.684 29.7333 42.7102 29.6786 42.7577 29.6358C42.8053 29.593 42.8671 29.5716 42.9432 29.5716C43.0098 29.5716 43.0692 29.5883 43.1215 29.6216C43.1738 29.6501 43.2214 29.6976 43.2642 29.7642L44.7835 31.8613H44.6337L46.153 29.7642C46.2053 29.6929 46.2552 29.643 46.3028 29.6144C46.3503 29.5859 46.4074 29.5716 46.474 29.5716C46.5501 29.5716 46.6095 29.593 46.6523 29.6358C46.6951 29.6739 46.7165 29.7262 46.7165 29.7927C46.7213 29.8546 46.6999 29.9211 46.6523 29.9925L44.8691 32.4533L44.9903 32.0468V34.3864C44.9903 34.5956 44.8928 34.7002 44.6979 34.7002ZM48.2401 34.7145C47.9025 34.7145 47.61 34.6408 47.3628 34.4933C47.1155 34.3459 46.9229 34.1391 46.785 33.8728C46.6518 33.6017 46.5853 33.2831 46.5853 32.917C46.5853 32.6412 46.6233 32.3939 46.6994 32.1751C46.7755 31.9516 46.8872 31.7614 47.0346 31.6045C47.182 31.4476 47.3556 31.3287 47.5553 31.2479C47.7598 31.1623 47.9881 31.1195 48.2401 31.1195C48.5777 31.1195 48.8702 31.1932 49.1175 31.3406C49.3647 31.488 49.5549 31.6972 49.6881 31.9683C49.826 32.2346 49.8949 32.5508 49.8949 32.917C49.8949 33.1928 49.8569 33.44 49.7808 33.6588C49.7047 33.8775 49.593 34.0677 49.4456 34.2294C49.2982 34.3864 49.1222 34.5076 48.9177 34.5932C48.718 34.674 48.4921 34.7145 48.2401 34.7145ZM48.2401 34.2508C48.4541 34.2508 48.6419 34.1985 48.8036 34.0939C48.9653 33.9893 49.0889 33.8371 49.1745 33.6374C49.2649 33.4377 49.31 33.1975 49.31 32.917C49.31 32.4842 49.2126 32.1537 49.0176 31.9255C48.8274 31.6972 48.5682 31.5831 48.2401 31.5831C48.0214 31.5831 47.8311 31.6354 47.6695 31.74C47.5125 31.8399 47.3889 31.9897 47.2986 32.1894C47.213 32.3844 47.1702 32.6269 47.1702 32.917C47.1702 33.3449 47.2676 33.6754 47.4626 33.9084C47.6576 34.1367 47.9167 34.2508 48.2401 34.2508ZM51.9896 34.7145C51.7091 34.7145 51.4761 34.6645 51.2906 34.5647C51.1099 34.4601 50.972 34.3055 50.8769 34.101C50.7865 33.8966 50.7414 33.6421 50.7414 33.3378V31.4262C50.7414 31.3263 50.7651 31.2526 50.8127 31.2051C50.865 31.1575 50.9363 31.1337 51.0267 31.1337C51.1218 31.1337 51.1931 31.1575 51.2407 31.2051C51.293 31.2526 51.3191 31.3263 51.3191 31.4262V33.3307C51.3191 33.635 51.3809 33.8633 51.5046 34.0154C51.633 34.1629 51.8327 34.2366 52.1038 34.2366C52.3986 34.2366 52.6387 34.1367 52.8242 33.937C53.0096 33.7373 53.1024 33.4757 53.1024 33.1524V31.4262C53.1024 31.3263 53.1261 31.2526 53.1737 31.2051C53.226 31.1575 53.2997 31.1337 53.3948 31.1337C53.4852 31.1337 53.5541 31.1575 53.6017 31.2051C53.654 31.2526 53.6801 31.3263 53.6801 31.4262V34.4006C53.6801 34.6003 53.5874 34.7002 53.4019 34.7002C53.3116 34.7002 53.2403 34.674 53.188 34.6217C53.1404 34.5694 53.1166 34.4957 53.1166 34.4006V33.7515L53.2094 33.8514C53.1142 34.1319 52.9573 34.3459 52.7386 34.4933C52.5246 34.6408 52.2749 34.7145 51.9896 34.7145ZM55.0536 34.7002C54.9584 34.7002 54.8847 34.674 54.8324 34.6217C54.7849 34.5694 54.7611 34.4957 54.7611 34.4006V31.4262C54.7611 31.3311 54.7849 31.2598 54.8324 31.2122C54.88 31.1599 54.9489 31.1337 55.0393 31.1337C55.1296 31.1337 55.1986 31.1599 55.2461 31.2122C55.2984 31.2598 55.3246 31.3311 55.3246 31.4262V32.004H55.2533C55.3294 31.7234 55.4744 31.507 55.6884 31.3549C55.9024 31.2027 56.1663 31.1218 56.4801 31.1123C56.5515 31.1076 56.6085 31.1242 56.6513 31.1623C56.6941 31.1956 56.7179 31.255 56.7227 31.3406C56.7274 31.4214 56.7084 31.4856 56.6656 31.5332C56.6228 31.5807 56.5562 31.6093 56.4659 31.6188L56.3517 31.633C56.0284 31.6616 55.7787 31.7662 55.6028 31.9469C55.4316 32.1228 55.346 32.3654 55.346 32.6744V34.4006C55.346 34.4957 55.3198 34.5694 55.2675 34.6217C55.22 34.674 55.1487 34.7002 55.0536 34.7002ZM59.5274 34.7002C59.4323 34.7002 59.3586 34.674 59.3063 34.6217C59.2587 34.5647 59.235 34.4886 59.235 34.3935V29.8783C59.235 29.7785 59.2587 29.7024 59.3063 29.6501C59.3586 29.5978 59.4323 29.5716 59.5274 29.5716C59.6225 29.5716 59.6938 29.5978 59.7414 29.6501C59.7937 29.7024 59.8199 29.7785 59.8199 29.8783V31.847H62.8371V29.8783C62.8371 29.7785 62.8609 29.7024 62.9084 29.6501C62.9607 29.5978 63.0344 29.5716 63.1295 29.5716C63.2246 29.5716 63.296 29.5978 63.3435 29.6501C63.3958 29.7024 63.422 29.7785 63.422 29.8783V34.3935C63.422 34.4886 63.3958 34.5647 63.3435 34.6217C63.296 34.674 63.2246 34.7002 63.1295 34.7002C63.0344 34.7002 62.9607 34.674 62.9084 34.6217C62.8609 34.5647 62.8371 34.4886 62.8371 34.3935V32.3535H59.8199V34.3935C59.8199 34.4886 59.7961 34.5647 59.7485 34.6217C59.701 34.674 59.6273 34.7002 59.5274 34.7002ZM66.1449 34.7145C65.7788 34.7145 65.4625 34.6431 65.1962 34.5005C64.9347 34.3531 64.7302 34.1462 64.5828 33.8799C64.4401 33.6136 64.3688 33.295 64.3688 32.9241C64.3688 32.5627 64.4401 32.2488 64.5828 31.9826C64.7255 31.7115 64.9204 31.4999 65.1677 31.3477C65.4197 31.1956 65.7098 31.1195 66.0379 31.1195C66.2709 31.1195 66.4802 31.1599 66.6656 31.2407C66.8511 31.3168 67.008 31.4286 67.1364 31.576C67.2695 31.7234 67.3694 31.9017 67.436 32.1109C67.5073 32.3202 67.543 32.5556 67.543 32.8171C67.543 32.8932 67.5216 32.9503 67.4788 32.9883C67.436 33.0216 67.3742 33.0382 67.2933 33.0382H64.8111V32.6602H67.1578L67.0437 32.7529C67.0437 32.4961 67.0056 32.2798 66.9295 32.1038C66.8535 31.9231 66.7417 31.7852 66.5943 31.6901C66.4516 31.595 66.2709 31.5474 66.0522 31.5474C65.8097 31.5474 65.6028 31.6045 65.4316 31.7186C65.2652 31.828 65.1392 31.9826 65.0536 32.1823C64.968 32.3772 64.9252 32.6055 64.9252 32.867V32.9098C64.9252 33.3473 65.0298 33.6802 65.239 33.9084C65.453 34.1367 65.755 34.2508 66.1449 34.2508C66.3066 34.2508 66.4659 34.2294 66.6228 34.1866C66.7845 34.1438 66.9414 34.0725 67.0936 33.9726C67.1602 33.9298 67.2196 33.9108 67.2719 33.9156C67.329 33.9156 67.3742 33.9322 67.4074 33.9655C67.4407 33.994 67.4621 34.0321 67.4716 34.0796C67.4859 34.1224 67.4812 34.17 67.4574 34.2223C67.4384 34.2746 67.3979 34.3198 67.3361 34.3578C67.1792 34.4719 66.9937 34.5599 66.7797 34.6217C66.5658 34.6836 66.3542 34.7145 66.1449 34.7145ZM69.4705 34.7145C69.2327 34.7145 69.0187 34.6693 68.8285 34.5789C68.6431 34.4838 68.4956 34.3554 68.3863 34.1938C68.2769 34.0321 68.2222 33.8514 68.2222 33.6517C68.2222 33.3949 68.2864 33.1928 68.4148 33.0454C68.548 32.8979 68.7643 32.7933 69.0639 32.7315C69.3682 32.6697 69.7819 32.6388 70.305 32.6388H70.626V33.0168H70.3122C69.927 33.0168 69.6226 33.0358 69.3991 33.0739C69.1804 33.1072 69.0259 33.1666 68.9355 33.2522C68.8499 33.3378 68.8071 33.4591 68.8071 33.616C68.8071 33.811 68.8737 33.9703 69.0068 34.0939C69.1447 34.2175 69.3302 34.2794 69.5632 34.2794C69.7534 34.2794 69.9199 34.2342 70.0625 34.1438C70.2099 34.0535 70.3241 33.9298 70.4049 33.7729C70.4905 33.616 70.5333 33.4353 70.5333 33.2308V32.4177C70.5333 32.1228 70.4738 31.9112 70.355 31.7828C70.2361 31.6497 70.0411 31.5831 69.7701 31.5831C69.6036 31.5831 69.4372 31.6045 69.2708 31.6473C69.1043 31.6901 68.9284 31.7591 68.7429 31.8542C68.6763 31.8874 68.6193 31.8993 68.5717 31.8898C68.5242 31.8756 68.4861 31.8494 68.4576 31.8114C68.4291 31.7733 68.4124 31.7305 68.4077 31.683C68.4029 31.6307 68.4124 31.5807 68.4362 31.5332C68.4647 31.4856 68.5075 31.4476 68.5646 31.4191C68.7738 31.3144 68.9807 31.2384 69.1852 31.1908C69.3896 31.1432 69.5846 31.1195 69.7701 31.1195C70.0696 31.1195 70.3169 31.1694 70.5119 31.2693C70.7069 31.3644 70.8519 31.5118 70.947 31.7115C71.0421 31.9065 71.0897 32.1585 71.0897 32.4676V34.4006C71.0897 34.4957 71.0659 34.5694 71.0183 34.6217C70.9755 34.674 70.9113 34.7002 70.8257 34.7002C70.7354 34.7002 70.6664 34.674 70.6189 34.6217C70.5713 34.5694 70.5476 34.4957 70.5476 34.4006V33.8442H70.6117C70.5737 34.0249 70.5 34.1795 70.3906 34.3079C70.286 34.4363 70.1552 34.5361 69.9983 34.6075C69.8414 34.6788 69.6654 34.7145 69.4705 34.7145ZM73.2172 34.7145C72.8748 34.7145 72.6133 34.6098 72.4326 34.4006C72.2519 34.1914 72.1615 33.8918 72.1615 33.5019V29.8641C72.1615 29.769 72.1853 29.6976 72.2329 29.6501C72.2804 29.5978 72.3518 29.5716 72.4469 29.5716C72.5372 29.5716 72.6085 29.5978 72.6608 29.6501C72.7132 29.6976 72.7393 29.769 72.7393 29.8641V33.4591C72.7393 33.7159 72.7892 33.9084 72.8891 34.0368C72.9937 34.1605 73.1459 34.2223 73.3456 34.2223C73.3884 34.2223 73.4264 34.2199 73.4597 34.2152C73.493 34.2104 73.5263 34.208 73.5596 34.208C73.6119 34.2033 73.6476 34.2152 73.6666 34.2437C73.6904 34.2722 73.7023 34.3293 73.7023 34.4149C73.7023 34.5005 73.6832 34.5647 73.6452 34.6075C73.6071 34.6503 73.5453 34.6788 73.4597 34.6931C73.4217 34.6978 73.3813 34.7026 73.3385 34.7073C73.2957 34.7121 73.2553 34.7145 73.2172 34.7145ZM75.6004 34.7145C75.3293 34.7145 75.1011 34.6669 74.9156 34.5718C74.7349 34.4719 74.5994 34.3293 74.5091 34.1438C74.4187 33.9536 74.3735 33.723 74.3735 33.4519V31.633H73.8956C73.8148 31.633 73.753 31.614 73.7102 31.576C73.6674 31.5332 73.646 31.4761 73.646 31.4048C73.646 31.3335 73.6674 31.2788 73.7102 31.2407C73.753 31.2027 73.8148 31.1837 73.8956 31.1837H74.3735V30.3634C74.3735 30.2683 74.3997 30.1969 74.452 30.1494C74.5043 30.0971 74.5756 30.0709 74.666 30.0709C74.7563 30.0709 74.8253 30.0971 74.8728 30.1494C74.9251 30.1969 74.9513 30.2683 74.9513 30.3634V31.1837H75.85C75.9309 31.1837 75.9927 31.2027 76.0355 31.2407C76.0783 31.2788 76.0997 31.3335 76.0997 31.4048C76.0997 31.4761 76.0783 31.5332 76.0355 31.576C75.9927 31.614 75.9309 31.633 75.85 31.633H74.9513V33.3949C74.9513 33.6659 75.0084 33.8728 75.1225 34.0154C75.2366 34.1533 75.4221 34.2223 75.6789 34.2223C75.7692 34.2223 75.8453 34.2128 75.9071 34.1938C75.9737 34.1747 76.0284 34.1652 76.0712 34.1652C76.114 34.1605 76.1496 34.1747 76.1782 34.208C76.2067 34.2413 76.221 34.2984 76.221 34.3792C76.221 34.4363 76.2091 34.4886 76.1853 34.5361C76.1663 34.5837 76.1306 34.617 76.0783 34.636C76.0212 34.655 75.9452 34.6717 75.85 34.6859C75.7597 34.705 75.6765 34.7145 75.6004 34.7145ZM77.0303 34.7002C76.9352 34.7002 76.8639 34.674 76.8163 34.6217C76.7688 34.5694 76.745 34.4957 76.745 34.4006V29.8641C76.745 29.769 76.7688 29.6976 76.8163 29.6501C76.8639 29.5978 76.9352 29.5716 77.0303 29.5716C77.1207 29.5716 77.192 29.5978 77.2443 29.6501C77.2966 29.6976 77.3228 29.769 77.3228 29.8641V31.954H77.23C77.3299 31.6782 77.4916 31.4714 77.7151 31.3335C77.9433 31.1908 78.2049 31.1195 78.4997 31.1195C78.7755 31.1195 79.0038 31.1694 79.1845 31.2693C79.3699 31.3691 79.5078 31.5213 79.5982 31.7258C79.6885 31.9255 79.7337 32.1799 79.7337 32.489V34.4006C79.7337 34.4957 79.7075 34.5694 79.6552 34.6217C79.6077 34.674 79.5387 34.7002 79.4484 34.7002C79.3533 34.7002 79.2796 34.674 79.2273 34.6217C79.1797 34.5694 79.1559 34.4957 79.1559 34.4006V32.5247C79.1559 32.2013 79.0917 31.9659 78.9633 31.8185C78.8397 31.6663 78.64 31.5902 78.3642 31.5902C78.0456 31.5902 77.7912 31.6901 77.601 31.8898C77.4155 32.0848 77.3228 32.3463 77.3228 32.6744V34.4006C77.3228 34.6003 77.2253 34.7002 77.0303 34.7002ZM81.1415 35.3279C81.0939 35.3897 81.044 35.4254 80.9917 35.4349C80.9394 35.4444 80.8942 35.4349 80.8561 35.4064C80.8181 35.3778 80.7967 35.3374 80.7919 35.2851C80.7919 35.2328 80.8157 35.1757 80.8633 35.1139C80.9394 35.014 80.9917 34.9118 81.0202 34.8072C81.0487 34.7073 81.063 34.6146 81.063 34.529L81.0915 34.6788C80.9679 34.6788 80.868 34.6431 80.7919 34.5718C80.7206 34.4957 80.6849 34.4006 80.6849 34.2865C80.6849 34.1724 80.7182 34.0796 80.7848 34.0083C80.8561 33.9322 80.9489 33.8942 81.063 33.8942C81.1866 33.8942 81.2841 33.937 81.3554 34.0226C81.4268 34.1034 81.4624 34.2223 81.4624 34.3792C81.4624 34.4791 81.4529 34.5813 81.4339 34.6859C81.4149 34.7953 81.3816 34.9047 81.334 35.014C81.2865 35.1234 81.2223 35.228 81.1415 35.3279ZM86.4509 34.7145C85.9848 34.7145 85.5783 34.6098 85.2311 34.4006C84.8887 34.1866 84.6224 33.887 84.4322 33.5019C84.2468 33.1167 84.1541 32.6602 84.1541 32.1323C84.1541 31.7329 84.2064 31.3763 84.311 31.0624C84.4203 30.7438 84.5749 30.4751 84.7746 30.2564C84.9743 30.0329 85.2145 29.8617 85.495 29.7428C85.7804 29.6192 86.099 29.5574 86.4509 29.5574C86.9264 29.5574 87.3353 29.662 87.6777 29.8712C88.0249 30.0804 88.2912 30.3776 88.4766 30.7628C88.6668 31.1432 88.7619 31.5974 88.7619 32.1252C88.7619 32.5247 88.7072 32.8837 88.5979 33.2023C88.4885 33.5209 88.3339 33.7919 88.1342 34.0154C87.9345 34.2389 87.692 34.4125 87.4067 34.5361C87.1261 34.655 86.8075 34.7145 86.4509 34.7145ZM86.4509 34.1938C86.8123 34.1938 87.1166 34.1129 87.3639 33.9512C87.6159 33.7896 87.8085 33.5542 87.9416 33.2451C88.0748 32.936 88.1414 32.5651 88.1414 32.1323C88.1414 31.4809 87.9939 30.9768 87.6991 30.6202C87.409 30.2588 86.993 30.0781 86.4509 30.0781C86.099 30.0781 85.797 30.1589 85.545 30.3206C85.2977 30.4823 85.1075 30.7176 84.9743 31.0267C84.8412 31.3311 84.7746 31.6996 84.7746 32.1323C84.7746 32.7791 84.922 33.2855 85.2169 33.6517C85.5117 34.0131 85.923 34.1938 86.4509 34.1938ZM90.956 34.7145C90.6755 34.7145 90.4425 34.6645 90.257 34.5647C90.0763 34.4601 89.9384 34.3055 89.8433 34.101C89.7529 33.8966 89.7078 33.6421 89.7078 33.3378V31.4262C89.7078 31.3263 89.7315 31.2526 89.7791 31.2051C89.8314 31.1575 89.9027 31.1337 89.9931 31.1337C90.0882 31.1337 90.1595 31.1575 90.2071 31.2051C90.2594 31.2526 90.2855 31.3263 90.2855 31.4262V33.3307C90.2855 33.635 90.3473 33.8633 90.471 34.0154C90.5994 34.1629 90.7991 34.2366 91.0702 34.2366C91.365 34.2366 91.6051 34.1367 91.7906 33.937C91.976 33.7373 92.0688 33.4757 92.0688 33.1524V31.4262C92.0688 31.3263 92.0925 31.2526 92.1401 31.2051C92.1924 31.1575 92.2661 31.1337 92.3612 31.1337C92.4516 31.1337 92.5205 31.1575 92.5681 31.2051C92.6204 31.2526 92.6465 31.3263 92.6465 31.4262V34.4006C92.6465 34.6003 92.5538 34.7002 92.3683 34.7002C92.278 34.7002 92.2067 34.674 92.1544 34.6217C92.1068 34.5694 92.083 34.4957 92.083 34.4006V33.7515L92.1758 33.8514C92.0806 34.1319 91.9237 34.3459 91.705 34.4933C91.491 34.6408 91.2413 34.7145 90.956 34.7145ZM94.02 34.7002C93.9248 34.7002 93.8511 34.674 93.7988 34.6217C93.7513 34.5694 93.7275 34.4957 93.7275 34.4006V31.4262C93.7275 31.3311 93.7513 31.2598 93.7988 31.2122C93.8464 31.1599 93.9153 31.1337 94.0057 31.1337C94.096 31.1337 94.165 31.1599 94.2125 31.2122C94.2648 31.2598 94.291 31.3311 94.291 31.4262V32.004H94.2197C94.2958 31.7234 94.4408 31.507 94.6548 31.3549C94.8688 31.2027 95.1327 31.1218 95.4465 31.1123C95.5179 31.1076 95.5749 31.1242 95.6177 31.1623C95.6605 31.1956 95.6843 31.255 95.6891 31.3406C95.6938 31.4214 95.6748 31.4856 95.632 31.5332C95.5892 31.5807 95.5226 31.6093 95.4323 31.6188L95.3181 31.633C94.9948 31.6616 94.7451 31.7662 94.5692 31.9469C94.398 32.1228 94.3124 32.3654 94.3124 32.6744V34.4006C94.3124 34.4957 94.2862 34.5694 94.2339 34.6217C94.1864 34.674 94.1151 34.7002 94.02 34.7002ZM98.4938 34.7002C98.3987 34.7002 98.325 34.674 98.2727 34.6217C98.2251 34.5647 98.2013 34.4886 98.2013 34.3935V29.9211C98.2013 29.8213 98.2275 29.7476 98.2798 29.7C98.3321 29.6477 98.4058 29.6216 98.5009 29.6216H100.191C100.729 29.6216 101.142 29.7547 101.433 30.021C101.723 30.2825 101.868 30.6535 101.868 31.1337C101.868 31.6093 101.723 31.9802 101.433 32.2465C101.142 32.5128 100.729 32.6459 100.191 32.6459H98.7862V34.3935C98.7862 34.4886 98.7625 34.5647 98.7149 34.6217C98.6674 34.674 98.5937 34.7002 98.4938 34.7002ZM98.7862 32.1537H100.12C100.505 32.1537 100.795 32.0681 100.99 31.897C101.19 31.721 101.29 31.4666 101.29 31.1337C101.29 30.7961 101.19 30.5417 100.99 30.3705C100.795 30.1946 100.505 30.1066 100.12 30.1066H98.7862V32.1537ZM102.859 34.7002C102.764 34.7002 102.691 34.674 102.638 34.6217C102.591 34.5694 102.567 34.4957 102.567 34.4006V31.4262C102.567 31.3311 102.591 31.2598 102.638 31.2122C102.686 31.1599 102.755 31.1337 102.845 31.1337C102.936 31.1337 103.005 31.1599 103.052 31.2122C103.104 31.2598 103.131 31.3311 103.131 31.4262V32.004H103.059C103.135 31.7234 103.28 31.507 103.494 31.3549C103.708 31.2027 103.972 31.1218 104.286 31.1123C104.357 31.1076 104.414 31.1242 104.457 31.1623C104.5 31.1956 104.524 31.255 104.529 31.3406C104.533 31.4214 104.514 31.4856 104.472 31.5332C104.429 31.5807 104.362 31.6093 104.272 31.6188L104.158 31.633C103.834 31.6616 103.585 31.7662 103.409 31.9469C103.238 32.1228 103.152 32.3654 103.152 32.6744V34.4006C103.152 34.4957 103.126 34.5694 103.073 34.6217C103.026 34.674 102.955 34.7002 102.859 34.7002ZM105.409 34.6859C105.314 34.6859 105.242 34.6598 105.195 34.6075C105.147 34.5504 105.123 34.4719 105.123 34.3721V31.4547C105.123 31.3549 105.147 31.2788 105.195 31.2265C105.242 31.1742 105.314 31.148 105.409 31.148C105.499 31.148 105.57 31.1742 105.623 31.2265C105.675 31.2788 105.701 31.3549 105.701 31.4547V34.3721C105.701 34.4719 105.675 34.5504 105.623 34.6075C105.575 34.6598 105.504 34.6859 105.409 34.6859ZM105.409 30.3491C105.29 30.3491 105.197 30.3182 105.131 30.2564C105.064 30.1898 105.031 30.1018 105.031 29.9925C105.031 29.8783 105.064 29.7927 105.131 29.7357C105.197 29.6739 105.29 29.643 105.409 29.643C105.532 29.643 105.625 29.6739 105.687 29.7357C105.754 29.7927 105.787 29.8783 105.787 29.9925C105.787 30.1018 105.754 30.1898 105.687 30.2564C105.625 30.3182 105.532 30.3491 105.409 30.3491ZM108.222 34.7145C107.885 34.7145 107.592 34.6408 107.345 34.4933C107.098 34.3459 106.905 34.1391 106.767 33.8728C106.634 33.6017 106.567 33.2831 106.567 32.917C106.567 32.6412 106.605 32.3939 106.681 32.1751C106.758 31.9516 106.869 31.7614 107.017 31.6045C107.164 31.4476 107.338 31.3287 107.537 31.2479C107.742 31.1623 107.97 31.1195 108.222 31.1195C108.56 31.1195 108.852 31.1932 109.1 31.3406C109.347 31.488 109.537 31.6972 109.67 31.9683C109.808 32.2346 109.877 32.5508 109.877 32.917C109.877 33.1928 109.839 33.44 109.763 33.6588C109.687 33.8775 109.575 34.0677 109.428 34.2294C109.28 34.3864 109.104 34.5076 108.9 34.5932C108.7 34.674 108.474 34.7145 108.222 34.7145ZM108.222 34.2508C108.436 34.2508 108.624 34.1985 108.786 34.0939C108.947 33.9893 109.071 33.8371 109.157 33.6374C109.247 33.4377 109.292 33.1975 109.292 32.917C109.292 32.4842 109.195 32.1537 109 31.9255C108.809 31.6972 108.55 31.5831 108.222 31.5831C108.003 31.5831 107.813 31.6354 107.652 31.74C107.495 31.8399 107.371 31.9897 107.281 32.1894C107.195 32.3844 107.152 32.6269 107.152 32.917C107.152 33.3449 107.25 33.6754 107.445 33.9084C107.64 34.1367 107.899 34.2508 108.222 34.2508ZM111.037 34.7002C110.942 34.7002 110.868 34.674 110.816 34.6217C110.769 34.5694 110.745 34.4957 110.745 34.4006V31.4262C110.745 31.3311 110.769 31.2598 110.816 31.2122C110.864 31.1599 110.933 31.1337 111.023 31.1337C111.113 31.1337 111.182 31.1599 111.23 31.2122C111.282 31.2598 111.308 31.3311 111.308 31.4262V32.004H111.237C111.313 31.7234 111.458 31.507 111.672 31.3549C111.886 31.2027 112.15 31.1218 112.464 31.1123C112.535 31.1076 112.592 31.1242 112.635 31.1623C112.678 31.1956 112.702 31.255 112.706 31.3406C112.711 31.4214 112.692 31.4856 112.649 31.5332C112.607 31.5807 112.54 31.6093 112.45 31.6188L112.335 31.633C112.012 31.6616 111.762 31.7662 111.587 31.9469C111.415 32.1228 111.33 32.3654 111.33 32.6744V34.4006C111.33 34.4957 111.304 34.5694 111.251 34.6217C111.204 34.674 111.132 34.7002 111.037 34.7002ZM113.587 34.6859C113.491 34.6859 113.42 34.6598 113.373 34.6075C113.325 34.5504 113.301 34.4719 113.301 34.3721V31.4547C113.301 31.3549 113.325 31.2788 113.373 31.2265C113.42 31.1742 113.491 31.148 113.587 31.148C113.677 31.148 113.748 31.1742 113.801 31.2265C113.853 31.2788 113.879 31.3549 113.879 31.4547V34.3721C113.879 34.4719 113.853 34.5504 113.801 34.6075C113.753 34.6598 113.682 34.6859 113.587 34.6859ZM113.587 30.3491C113.468 30.3491 113.375 30.3182 113.308 30.2564C113.242 30.1898 113.209 30.1018 113.209 29.9925C113.209 29.8783 113.242 29.7927 113.308 29.7357C113.375 29.6739 113.468 29.643 113.587 29.643C113.71 29.643 113.803 29.6739 113.865 29.7357C113.931 29.7927 113.965 29.8783 113.965 29.9925C113.965 30.1018 113.931 30.1898 113.865 30.2564C113.803 30.3182 113.71 30.3491 113.587 30.3491ZM116.35 34.7145C116.079 34.7145 115.851 34.6669 115.665 34.5718C115.485 34.4719 115.349 34.3293 115.259 34.1438C115.168 33.9536 115.123 33.723 115.123 33.4519V31.633H114.645C114.564 31.633 114.503 31.614 114.46 31.576C114.417 31.5332 114.396 31.4761 114.396 31.4048C114.396 31.3335 114.417 31.2788 114.46 31.2407C114.503 31.2027 114.564 31.1837 114.645 31.1837H115.123V30.3634C115.123 30.2683 115.149 30.1969 115.202 30.1494C115.254 30.0971 115.325 30.0709 115.416 30.0709C115.506 30.0709 115.575 30.0971 115.622 30.1494C115.675 30.1969 115.701 30.2683 115.701 30.3634V31.1837H116.6C116.681 31.1837 116.742 31.2027 116.785 31.2407C116.828 31.2788 116.849 31.3335 116.849 31.4048C116.849 31.4761 116.828 31.5332 116.785 31.576C116.742 31.614 116.681 31.633 116.6 31.633H115.701V33.3949C115.701 33.6659 115.758 33.8728 115.872 34.0154C115.986 34.1533 116.172 34.2223 116.428 34.2223C116.519 34.2223 116.595 34.2128 116.657 34.1938C116.723 34.1747 116.778 34.1652 116.821 34.1652C116.864 34.1605 116.899 34.1747 116.928 34.208C116.956 34.2413 116.971 34.2984 116.971 34.3792C116.971 34.4363 116.959 34.4886 116.935 34.5361C116.916 34.5837 116.88 34.617 116.828 34.636C116.771 34.655 116.695 34.6717 116.6 34.6859C116.509 34.705 116.426 34.7145 116.35 34.7145ZM118.265 35.9841C118.194 35.9841 118.137 35.9651 118.094 35.9271C118.051 35.889 118.025 35.8367 118.015 35.7701C118.011 35.7083 118.022 35.6441 118.051 35.5775L118.543 34.4719V34.7216L117.174 31.5403C117.145 31.469 117.136 31.4024 117.145 31.3406C117.155 31.2788 117.183 31.2288 117.231 31.1908C117.278 31.1528 117.345 31.1337 117.43 31.1337C117.507 31.1337 117.566 31.1504 117.609 31.1837C117.652 31.217 117.69 31.2764 117.723 31.362L118.893 34.2294H118.7L119.884 31.362C119.922 31.2764 119.963 31.217 120.005 31.1837C120.048 31.1504 120.11 31.1337 120.191 31.1337C120.267 31.1337 120.324 31.1528 120.362 31.1908C120.405 31.2288 120.429 31.2788 120.433 31.3406C120.443 31.3977 120.433 31.4619 120.405 31.5332L118.579 35.7559C118.541 35.8415 118.498 35.9009 118.45 35.9342C118.408 35.9675 118.346 35.9841 118.265 35.9841Z" fill="#415DA1"/>
<path d="M6.3679 19.1359C5.44432 19.1359 5.57412 21.9355 5.74331 23.3813C5.85599 25.1347 7.75226 27.6722 7.70611 26.6109C7.65997 25.5496 7.22327 19.1359 6.3679 19.1359Z" fill="#879ED5"/>
<path d="M4.45099 16.1369C3.52815 16.1 3.63581 18.9824 3.805 20.4282C3.91768 22.1816 6.50608 26.8877 6.45994 25.8265C6.4138 24.7652 5.60455 16.1831 4.45099 16.1369Z" fill="#6D86C2"/>
<path d="M2.5838 14.1526C1.66096 14.1157 1.76863 16.998 1.93781 18.4438C2.0505 20.1972 4.93706 24.8576 4.89092 23.7963C4.84478 22.735 3.73736 14.1987 2.5838 14.1526Z" fill="#516DB1"/>
<path d="M10.1052 28.9641C13.8704 30.6252 14.9963 34.3012 15.0886 35.9316C21.9638 28.0874 17.0265 23.1502 13.9811 21.7198C10.9358 20.2894 9.55149 18.5821 8.67479 17.2902C7.79809 15.9982 6.69067 17.4747 7.47509 19.6434C8.25951 21.8121 11.1665 23.4271 10.9819 23.8423C10.7973 24.2576 10.1052 24.5345 6.41382 23.0579C2.72244 21.5814 1.75345 15.629 1.56888 14.6139C1.38431 13.5988 -0.922776 12.3068 0.415349 19.182C1.75347 26.0572 5.39871 26.8877 10.1052 28.9641Z" fill="url(#paint0_linear_142_3393)"/>
<path d="M30.7849 16.0954C28.1214 24.6449 20.9064 32.9204 17.6318 35.9894C20.7968 35.0851 31.5658 28.7552 34.813 22.6719C38.0601 16.5887 37.7313 12.0673 35.9639 8.40914C34.1964 4.75095 30.045 1.95593 25.6059 2.778C22.0545 3.43565 19.9884 5.18939 19.3993 5.98405C19.9884 5.55932 21.6407 4.61766 23.2095 4.43309C25.2305 4.19532 34.1142 5.40861 30.7849 16.0954Z" fill="#869DD4"/>
<path d="M12.2416 12.0039C8.48669 12.1064 6.40306 15.4643 5.83061 17.1305C5.61428 16.0394 6.12598 13.1014 7.53072 11.4071C8.88722 9.77093 10.993 8.56608 13.9443 8.73543C16.3054 8.87091 17.918 9.98432 18.4292 10.5241C18.5095 10.1956 18.4 10.0649 18.8757 8.97968C19.4703 7.62316 21.1535 5.53179 23.9844 5.4677C26.8153 5.4036 29.317 7.02285 30.1331 9.73084C30.7859 11.8972 30.2792 14.6767 29.9443 15.7957C29.9434 15.1388 29.9304 13.7634 29.8852 13.5177C29.8286 13.2105 28.9953 9.2935 24.3312 10.3186C20.6 11.1386 19.4485 14.301 19.1447 16.1785C18.4082 14.7443 15.9965 11.9014 12.2416 12.0039Z" fill="#445D9A"/>
<defs>
<linearGradient id="paint0_linear_142_3393" x1="2.86082" y1="21.3674" x2="29.9002" y2="45.7766" gradientUnits="userSpaceOnUse">
<stop stop-color="#415DA1"/>
<stop offset="1" stop-color="#485B88"/>
</linearGradient>
</defs>
</svg>
